WIPSHDC-Missing-JP-Sans.glyphspackage
{
glyphname = uni4E08;
layers = (
{
layerId = m01;
shapes = (
{
closed = 1;
nodes = (
(71,621,l),
(71,592,l),
(931,592,l),
(931,621,l)
);
},
{
closed = 1;
nodes = (
(238,523,l),
(325,168,o),
(527,-16,o),
(933,-72,c),
(937,-64,o),
(945,-53,o),
(951,-46,c),
(546,6,o),
(347,188,o),
(265,531,c)
);
},
{
closed = 1;
nodes = (
(512,814,l),
(511,342,o),
(514,64,o),
(47,-47,c),
(53,-53,o),
(62,-64,o),
(65,-71,c),
(538,44,o),
(542,332,o),
(542,814,c)
);
}
);
vertWidth = 1000;
width = 1000;
},
{
layerId = "94DDBC6A-1627-4027-9125-871D02041BCD";
shapes = (
{
closed = 1;
nodes = (
(53,683,l),
(53,541,l),
(949,541,l),
(949,683,l)
);
},
{
closed = 1;
nodes = (
(170,480,l),
(291,97,o),
(505,-48,o),
(892,-97,c),
(911,-54,o),
(952,15,o),
(984,49,c),
(628,83,o),
(404,200,o),
(314,514,c)
);
},
{
closed = 1;
nodes = (
(464,840,l),
(461,394,o),
(487,155,o),
(19,40,c),
(53,6,o),
(94,-54,o),
(110,-96,c),
(630,47,o),
(624,362,o),
(627,840,c)
);
}
);
vertWidth = 1000;
width = 1000;
}
);
note = cid09491;
unicode = 19976;
}
{
glyphname = uni4E0D;
layers = (
{
layerId = m01;
shapes = (
{
closed = 1;
nodes = (
(74,757,l),
(74,727,l),
(925,727,l),
(925,757,l)
);
},
{
closed = 1;
nodes = (
(571,484,l),
(698,408,o),
(850,296,o),
(925,221,c),
(945,244,l),
(869,318,o),
(718,428,o),
(590,502,c)
);
},
{
closed = 1;
nodes = (
(574,749,l),
(463,537,o),
(263,335,o),
(55,225,c),
(61,219,o),
(70,209,o),
(75,203,c),
(285,316,o),
(489,522,o),
(603,737,c)
);
},
{
closed = 1;
nodes = (
(483,582,l),
(483,-69,l),
(513,-69,l),
(513,611,l),
(513,611,l)
);
}
);
vertWidth = 1000;
width = 1000;
},
{
layerId = "94DDBC6A-1627-4027-9125-871D02041BCD";
shapes = (
{
closed = 1;
nodes = (
(62,790,l),
(62,641,l),
(940,641,l),
(940,790,l)
);
},
{
closed = 1;
nodes = (
(540,370,l),
(668,293,o),
(791,201,o),
(859,131,c),
(975,253,l),
(903,320,o),
(776,406,o),
(647,475,c)
);
},
{
closed = 1;
nodes = (
(489,734,l),
(411,561,o),
(239,367,o),
(27,270,c),
(58,237,o),
(104,176,o),
(127,137,c),
(359,257,o),
(538,464,o),
(652,677,c)
);
},
{
closed = 1;
nodes = (
(421,466,l),
(421,-95,l),
(581,-95,l),
(581,625,l),
(581,626,l)
);
}
);
vertWidth = 1000;
width = 1000;
}
);
note = cid09496;
unicode = (19981,63847);
}
{
glyphname = uni4E14;
layers = (
{
layerId = m01;
shapes = (
{
closed = 1;
nodes = (
(59,5,l),
(59,-24,l),
(942,-24,l),
(942,5,l)
);
},
{
closed = 1;
nodes = (
(250,517,l),
(250,487,l),
(753,487,l),
(753,517,l)
);
},
{
closed = 1;
nodes = (
(250,258,l),
(250,229,l),
(753,229,l),
(753,258,l)
);
},
{
closed = 1;
nodes = (
(234,768,l),
(234,-10,l),
(263,-10,l),
(263,738,l),
(739,738,l),
(739,-10,l),
(768,-10,l),
(768,768,l)
);
}
);
vertWidth = 1000;
width = 1000;
},
{
layerId = "94DDBC6A-1627-4027-9125-871D02041BCD";
shapes = (
{
closed = 1;
nodes = (
(46,87,l),
(46,-55,l),
(956,-55,l),
(956,87,l)
);
},
{
closed = 1;
nodes = (
(286,565,l),
(286,431,l),
(691,431,l),
(691,565,l)
);
},
{
closed = 1;
nodes = (
(286,331,l),
(286,191,l),
(691,191,l),
(691,331,l)
);
},
{
closed = 1;
nodes = (
(203,804,l),
(203,16,l),
(348,16,l),
(348,664,l),
(647,664,l),
(647,16,l),
(799,16,l),
(799,804,l)
);
}
);
vertWidth = 1000;
width = 1000;
}
);
note = cid09510;
unicode = 19988;
}
{
glyphname = uni4E15;
layers = (
{
layerId = m01;
shapes = (
{
closed = 1;
nodes = (
(80,751,l),
(80,721,l),
(920,721,l),
(920,751,l)
);
},
{
closed = 1;
nodes = (
(59,8,l),
(59,-21,l),
(942,-21,l),
(942,8,l)
);
},
{
closed = 1;
nodes = (
(563,732,l),
(451,540,o),
(263,387,o),
(53,295,c),
(61,289,o),
(72,278,o),
(77,271,c),
(282,370,o),
(473,521,o),
(590,721,c)
);
},
{
closed = 1;
nodes = (
(574,532,l),
(697,458,o),
(847,349,o),
(922,280,c),
(945,304,l),
(868,373,o),
(718,477,o),
(595,551,c)
);
},
{
closed = 1;
nodes = (
(483,592,l),
(483,62,l),
(513,62,l),
(513,621,l),
(513,621,l)
);
}
);
vertWidth = 1000;
width = 1000;
},
{
layerId = "94DDBC6A-1627-4027-9125-871D02041BCD";
shapes = (
{
closed = 1;
nodes = (
(76,801,l),
(76,666,l),
(923,666,l),
(923,801,l)
);
},
{
closed = 1;
nodes = (
(50,73,l),
(50,-65,l),
(951,-65,l),
(951,73,l)
);
},
{
closed = 1;
nodes = (
(521,745,l),
(418,589,o),
(231,457,o),
(36,385,c),
(68,355,o),
(121,290,o),
(143,257,c),
(338,348,o),
(541,501,o),
(666,684,c)
);
},
{
closed = 1;
nodes = (
(592,464,l),
(694,401,o),
(797,321,o),
(858,258,c),
(971,372,l),
(905,432,o),
(799,506,o),
(697,564,c)
);
},
{
closed = 1;
nodes = (
(424,529,l),
(424,98,l),
(575,98,l),
(575,630,l),
(537,642,l)
);
}
);
vertWidth = 1000;
width = 1000;
}
);
note = cid09511;
unicode = 19989;
}
{
glyphname = uni4E3B;
layers = (
{
layerId = m01;
shapes = (
{
closed = 1;
nodes = (
(111,610,l),
(111,580,l),
(892,580,l),
(892,610,l)
);
},
{
closed = 1;
nodes = (
(150,314,l),
(150,284,l),
(857,284,l),
(857,314,l)
);
},
{
closed = 1;
nodes = (
(61,-5,l),
(61,-34,l),
(944,-34,l),
(944,-5,l)
);
},
{
closed = 1;
nodes = (
(484,594,l),
(484,-18,l),
(514,-18,l),
(514,594,l)
);
},
{
closed = 1;
nodes = (
(350,809,l),
(449,766,o),
(551,702,o),
(614,645,c),
(633,668,l),
(569,724,o),
(468,786,o),
(369,830,c)
);
}
);
vertWidth = 1000;
width = 1000;
},
{
layerId = "94DDBC6A-1627-4027-9125-871D02041BCD";
shapes = (
{
closed = 1;
nodes = (
(90,652,l),
(90,510,l),
(905,510,l),
(905,652,l)
);
},
{
closed = 1;
nodes = (
(147,372,l),
(147,232,l),
(854,232,l),
(854,372,l)
);
},
{
closed = 1;
nodes = (
(49,78,l),
(49,-65,l),
(954,-65,l),
(954,78,l)
);
},
{
closed = 1;
nodes = (
(420,536,l),
(420,1,l),
(581,1,l),
(581,536,l)
);
},
{
closed = 1;
nodes = (
(302,740,l),
(418,703,o),
(524,655,o),
(577,614,c),
(690,739,l),
(637,777,o),
(531,822,o),
(415,854,c)
);
}
);
vertWidth = 1000;
width = 1000;
}
);
note = cid09562;
unicode = 20027;
}
{
glyphname = uni4E4D;
layers = (
{
layerId = m01;
shapes = (
{
closed = 1;
nodes = (
(338,836,l),
(272,672,o),
(167,516,o),
(49,415,c),
(57,410,o),
(71,400,o),
(76,395,c),
(190,501,o),
(296,657,o),
(367,828,c)
);
},
{
closed = 1;
nodes = (
(271,651,l),
(256,621,l),
(941,621,l),
(941,651,l)
);
},
{
closed = 1;
nodes = (
(466,640,l),
(466,-70,l),
(495,-70,l),
(495,640,l)
);
},
{
closed = 1;
nodes = (
(481,441,l),
(481,412,l),
(881,412,l),
(881,441,l)
);
},
{
closed = 1;
nodes = (
(481,229,l),
(481,199,l),
(891,199,l),
(891,229,l)
);
}
);
vertWidth = 1000;
width = 1000;
},
{
layerId = "94DDBC6A-1627-4027-9125-871D02041BCD";
shapes = (
{
closed = 1;
nodes = (
(256,854,l),
(205,698,o),
(115,538,o),
(18,443,c),
(56,422,o),
(123,377,o),
(153,351,c),
(247,461,o),
(347,640,o),
(410,814,c)
);
},
{
closed = 1;
nodes = (
(272,693,l),
(201,551,l),
(957,551,l),
(957,693,l)
);
},
{
closed = 1;
nodes = (
(406,643,l),
(406,-95,l),
(560,-95,l),
(560,643,l)
);
},
{
closed = 1;
nodes = (
(503,477,l),
(503,338,l),
(891,338,l),
(891,477,l)
);
},
{
closed = 1;
nodes = (
(503,261,l),
(503,119,l),
(916,119,l),
(916,261,l)
);
}
);
vertWidth = 1000;
width = 1000;
}
);
note = cid09585;
unicode = 20045;
}
{
glyphname = uni4E4E;
layers = (
{
layerId = m01;
shapes = (
{
closed = 1;
nodes = (
(819,807,l),
(673,765,o),
(365,741,o),
(133,732,c),
(135,724,o),
(139,714,o),
(139,706,c),
(376,713,o),
(681,737,o),
(838,781,c)
);
},
{
closed = 1;
nodes = (
(62,337,l),
(62,308,l),
(940,308,l),
(940,337,l)
);
},
{
closed = 1;
nodes = (
(492,739,l),
(492,-15,ls),
(492,-37,o),
(484,-43,o),
(462,-45,cs),
(440,-46,o),
(365,-47,o),
(272,-44,c),
(278,-54,o),
(282,-66,o),
(285,-74,c),
(395,-74,o),
(453,-75,o),
(480,-69,cs),
(508,-64,o),
(522,-51,o),
(522,-14,cs),
(522,739,l)
);
},
{
closed = 1;
nodes = (
(187,635,l),
(231,559,o),
(277,459,o),
(293,398,c),
(322,408,l),
(305,468,o),
(259,568,o),
(215,643,c)
);
},
{
closed = 1;
nodes = (
(805,657,l),
(775,583,o),
(721,474,o),
(679,410,c),
(703,397,l),
(745,461,o),
(797,564,o),
(834,644,c)
);
}
);
vertWidth = 1000;
width = 1000;
},
{
layerId = "94DDBC6A-1627-4027-9125-871D02041BCD";
shapes = (
{
closed = 1;
nodes = (
(819,855,l),
(626,811,o),
(351,785,o),
(96,776,c),
(111,741,o),
(128,683,o),
(131,644,c),
(382,649,o),
(669,671,o),
(890,721,c)
);
},
{
closed = 1;
nodes = (
(42,387,l),
(42,242,l),
(961,242,l),
(961,387,l)
);
},
{
closed = 1;
nodes = (
(423,728,l),
(423,81,ls),
(423,61,o),
(414,54,o),
(391,54,cs),
(367,54,o),
(282,54,o),
(214,58,c),
(238,18,o),
(266,-50,o),
(275,-93,c),
(375,-93,o),
(452,-89,o),
(507,-66,cs),
(562,-44,o),
(581,-5,o),
(581,79,cs),
(581,728,l)
);
},
{
closed = 1;
nodes = (
(140,590,l),
(172,527,o),
(206,445,o),
(216,392,c),
(349,445,l),
(336,498,o),
(299,577,o),
(264,636,c)
);
},
{
closed = 1;
nodes = (
(730,662,l),
(711,592,o),
(677,510,o),
(642,448,c),
(762,395,l),
(801,454,o),
(849,535,o),
(887,605,c)
);
}
);
vertWidth = 1000;
width = 1000;
}
);
note = cid09586;
unicode = 20046;
}
{
glyphname = uni4EE3;
layers = (
{
layerId = m01;
shapes = (
{
closed = 1;
nodes = (
(298,476,l),
(302,449,l),
(950,525,l),
(946,552,l)
);
},
{
closed = 1;
nodes = (
(683,790,l),
(756,744,o),
(831,686,o),
(878,638,c),
(898,656,l),
(850,704,o),
(774,762,o),
(701,807,c)
);
},
{
closed = 1;
nodes = (
(341,818,l),
(271,652,o),
(155,494,o),
(32,392,c),
(38,387,o),
(49,375,o),
(53,369,c),
(177,477,o),
(293,636,o),
(369,810,c)
);
},
{
closed = 1;
nodes = (
(218,572,l),
(218,-69,l),
(247,-69,l),
(247,600,l),
(247,601,l)
);
},
{
closed = 1;
nodes = (
(549,817,l),
(573,339,o),
(677,-62,o),
(880,-71,cs),
(929,-73,o),
(956,-16,o),
(973,137,c),
(966,139,o),
(954,144,o),
(947,149,c),
(934,26,o),
(914,-42,o),
(880,-40,cs),
(710,-29,o),
(600,346,o),
(578,817,c)
);
}
);
vertWidth = 1000;
width = 1000;
},
{
layerId = "94DDBC6A-1627-4027-9125-871D02041BCD";
shapes = (
{
closed = 1;
nodes = (
(350,529,l),
(366,391,l),
(975,458,l),
(959,596,l)
);
},
{
closed = 1;
nodes = (
(717,788,l),
(764,737,o),
(819,666,o),
(840,619,c),
(958,693,l),
(933,741,o),
(875,808,o),
(827,855,c)
);
},
{
closed = 1;
nodes = (
(268,848,l),
(209,701,o),
(107,555,o),
(3,465,c),
(28,429,o),
(69,350,o),
(83,315,c),
(208,432,o),
(332,624,o),
(407,802,c)
);
},
{
closed = 1;
nodes = (
(170,549,l),
(170,-93,l),
(321,-93,l),
(321,696,l),
(319,698,l)
);
},
{
closed = 1;
nodes = (
(515,839,l),
(530,276,o),
(585,-67,o),
(829,-92,cs),
(887,-96,o),
(949,-53,o),
(977,153,c),
(951,167,o),
(886,206,o),
(858,237,c),
(852,130,o),
(842,83,o),
(822,85,c),
(717,103,o),
(666,423,o),
(663,839,c)
);
}
);
vertWidth = 1000;
width = 1000;
}
);
note = cid09807;
unicode = 20195;
}
{
glyphname = uni4F5C;
layers = (
{
layerId = m01;
shapes = (
{
closed = 1;
nodes = (
(482,659,l),
(468,629,l),
(951,629,l),
(951,659,l)
);
},
{
closed = 1;
nodes = (
(600,445,l),
(600,416,l),
(931,416,l),
(931,445,l)
);
},
{
closed = 1;
nodes = (
(600,225,l),
(600,195,l),
(945,195,l),
(945,225,l)
);
},
{
closed = 1;
nodes = (
(586,650,l),
(586,-69,l),
(616,-69,l),
(616,650,l)
);
},
{
closed = 1;
nodes = (
(536,816,l),
(483,667,o),
(400,520,o),
(307,423,c),
(315,418,o),
(328,408,o),
(332,404,c),
(424,505,o),
(508,653,o),
(565,809,c)
);
},
{
closed = 1;
nodes = (
(319,827,l),
(257,666,o),
(157,508,o),
(50,405,c),
(57,400,o),
(68,387,o),
(72,381,c),
(180,491,o),
(280,650,o),
(347,819,c)
);
},
{
closed = 1;
nodes = (
(207,588,l),
(207,-68,l),
(237,-68,l),
(237,615,l),
(235,617,l)
);
}
);
vertWidth = 1000;
width = 1000;
},
{
layerId = "94DDBC6A-1627-4027-9125-871D02041BCD";
shapes = (
{
closed = 1;
nodes = (
(496,694,l),
(427,556,l),
(978,556,l),
(978,694,l)
);
},
{
closed = 1;
nodes = (
(631,473,l),
(631,341,l),
(951,341,l),
(951,473,l)
);
},
{
closed = 1;
nodes = (
(630,251,l),
(630,116,l),
(964,116,l),
(964,251,l)
);
},
{
closed = 1;
nodes = (
(557,648,l),
(557,-95,l),
(707,-95,l),
(707,648,l)
);
},
{
closed = 1;
nodes = (
(498,847,l),
(455,703,o),
(376,556,o),
(288,468,c),
(321,443,o),
(381,387,o),
(406,359,c),
(500,466,o),
(592,640,o),
(648,808,c)
);
},
{
closed = 1;
nodes = (
(250,850,l),
(196,706,o),
(103,564,o),
(6,475,c),
(32,438,o),
(75,356,o),
(90,319,c),
(209,436,o),
(325,627,o),
(395,803,c)
);
},
{
closed = 1;
nodes = (
(156,549,l),
(156,-93,l),
(300,-93,l),
(300,689,l),
(298,691,l)
);
}
);
vertWidth = 1000;
width = 1000;
}
);
note = cid09980;
unicode = 20316;
}
{
glyphname = uni51E6;
layers = (
{
layerId = m01;
shapes = (
{
closed = 1;
nodes = (
(207,831,l),
(182,621,o),
(122,416,o),
(50,299,c),
(58,295,o),
(71,285,o),
(76,280,c),
(147,401,o),
(209,612,o),
(236,827,c)
);
},
{
closed = 1;
nodes = (
(197,652,l),
(188,622,l),
(410,622,l),
(410,652,l)
);
},
{
closed = 1;
nodes = (
(403,652,l),
(403,643,l),
(369,271,o),
(260,61,o),
(44,-47,c),
(52,-53,o),
(61,-63,o),
(66,-69,c),
(286,44,o),
(398,262,o),
(433,648,c),
(415,654,l),
(409,652,l)
);
},
{
closed = 1;
nodes = (
(149,524,l),
(239,27,o),
(492,-48,o),
(773,-48,cs),
(907,-48,l),
(937,-48,l),
(938,-40,o),
(945,-26,o),
(951,-18,c),
(921,-18,o),
(798,-18,o),
(775,-18,cs),
(509,-18,o),
(260,50,o),
(173,533,c)
);
},
{
closed = 1;
nodes = (
(535,758,l),
(535,552,ls),
(535,425,o),
(523,254,o),
(425,124,c),
(433,120,o),
(443,111,o),
(448,105,c),
(549,239,o),
(565,420,o),
(565,552,cs),
(565,758,l)
);
},
{
closed = 1;
nodes = (
(547,758,l),
(547,728,l),
(799,728,l),
(799,758,l)
);
},
{
closed = 1;
nodes = (
(786,758,l),
(786,201,ls),
(786,137,o),
(795,123,o),
(836,123,cs),
(843,123,o),
(871,123,o),
(878,123,cs),
(925,123,o),
(933,145,o),
(935,327,c),
(927,329,o),
(916,334,o),
(909,340,c),
(907,165,o),
(901,151,o),
(876,151,cs),
(865,151,o),
(846,151,o),
(838,151,cs),
(817,151,o),
(815,159,o),
(815,198,cs),
(815,758,l)
);
}
);
vertWidth = 1000;
width = 1000;
},
{
layerId = "94DDBC6A-1627-4027-9125-871D02041BCD";
shapes = (
{
closed = 1;
nodes = (
(139,852,l),
(123,656,o),
(87,463,o),
(11,348,c),
(42,323,o),
(98,266,o),
(119,238,c),
(209,380,o),
(258,605,o),
(283,834,c)
);
},
{
closed = 1;
nodes = (
(211,697,l),
(163,576,l),
(369,576,l),
(369,697,l)
);
},
{
closed = 1;
nodes = (
(332,697,l),
(332,670,l),
(317,343,o),
(234,108,o),
(50,16,c),
(79,-12,o),
(117,-66,o),
(137,-103,c),
(357,31,o),
(449,267,o),
(468,687,c),
(381,700,l),
(356,697,l)
);
},
{
closed = 1;
nodes = (
(99,533,l),
(201,25,o),
(431,-79,o),
(730,-79,cs),
(887,-79,l),
(920,-79,l),
(928,-40,o),
(951,28,o),
(972,61,c),
(918,59,o),
(784,59,o),
(737,59,cs),
(494,60,o),
(297,140,o),
(206,566,c)
);
},
{
closed = 1;
nodes = (
(514,788,l),
(514,608,ls),
(514,488,o),
(508,313,o),
(429,192,c),
(461,179,o),
(521,141,o),
(546,119,c),
(632,253,o),
(647,465,o),
(647,607,cs),
(647,788,l)
);
},
{
closed = 1;
nodes = (
(581,788,l),
(581,667,l),
(799,667,l),
(799,788,l)
);
},
{
closed = 1;
nodes = (
(711,788,l),
(711,268,ls),
(711,157,o),
(732,114,o),
(819,114,cs),
(836,114,o),
(853,114,o),
(870,114,cs),
(950,114,o),
(971,157,o),
(979,332,c),
(948,343,o),
(906,366,o),
(883,386,c),
(881,257,o),
(876,237,o),
(868,237,cs),
(865,237,o),
(860,237,o),
(857,237,cs),
(849,237,o),
(848,241,o),
(848,268,cs),
(848,788,l)
);
}
);
vertWidth = 1000;
width = 1000;
}
);
note = cid11098;
unicode = 20966;
}
{
glyphname = uni5208;
layers = (
{
layerId = m01;
shapes = (
{
closed = 1;
nodes = (
(611,710,l),
(611,168,l),
(640,168,l),
(640,710,l)
);
},
{
closed = 1;
nodes = (
(868,826,l),
(868,-11,ls),
(868,-29,o),
(863,-34,o),
(844,-35,cs),
(825,-36,o),
(758,-37,o),
(684,-35,c),
(690,-46,o),
(695,-61,o),
(698,-70,c),
(776,-70,o),
(833,-70,o),
(860,-65,cs),
(885,-59,o),
(897,-46,o),
(897,-9,cs),
(897,826,l)
);
},
{
closed = 1;
nodes = (
(439,802,l),
(385,443,o),
(250,142,o),
(62,-35,c),
(70,-41,o),
(81,-51,o),
(86,-57,c),
(277,126,o),
(414,433,o),
(468,798,c)
);
},
{
closed = 1;
nodes = (
(80,646,l),
(264,479,o),
(434,267,o),
(521,96,c),
(545,115,l),
(459,282,o),
(289,493,o),
(102,663,c)
);
}
);
vertWidth = 1000;
width = 1000;
},
{
layerId = "94DDBC6A-1627-4027-9125-871D02041BCD";
shapes = (
{
closed = 1;
nodes = (
(549,738,l),
(549,161,l),
(692,161,l),
(692,738,l)
);
},
{
closed = 1;
nodes = (
(792,854,l),
(792,82,ls),
(792,63,o),
(784,57,o),
(764,57,cs),
(743,57,o),
(676,57,o),
(614,60,c),
(635,18,o),
(658,-51,o),
(664,-94,c),
(758,-94,o),
(830,-89,o),
(877,-65,cs),
(924,-41,o),
(939,-1,o),
(939,81,cs),
(939,854,l)
);
},
{
closed = 1;
nodes = (
(320,843,l),
(294,461,o),
(186,160,o),
(19,4,c),
(59,-22,o),
(114,-67,o),
(143,-97,c),
(323,77,o),
(440,409,o),
(469,829,c)
);
},
{
closed = 1;
nodes = (
(25,579,l),
(193,419,o),
(351,224,o),
(435,75,c),
(547,197,l),
(461,338,o),
(298,528,o),
(124,690,c)
);
}
);
vertWidth = 1000;
width = 1000;
}
);
note = cid11147;
unicode = 21000;
}
{
glyphname = uni522B;
layers = (
{
layerId = m01;
shapes = (
{
closed = 1;
nodes = (
(613,712,l),
(613,169,l),
(642,169,l),
(642,712,l)
);
},
{
closed = 1;
nodes = (
(868,813,l),
(868,-17,ls),
(868,-36,o),
(861,-42,o),
(842,-43,cs),
(824,-44,o),
(764,-45,o),
(687,-43,c),
(693,-52,o),
(698,-65,o),
(701,-71,c),
(793,-72,o),
(839,-72,o),
(863,-66,cs),
(885,-61,o),
(898,-49,o),
(898,-16,cs),
(898,813,l)
);
},
{
closed = 1;
nodes = (
(135,756,l),
(457,756,l),
(457,508,l),
(135,508,l)
);
},
{
closed = 1;
nodes = (
(106,785,l),
(106,478,l),
(486,478,l),
(486,785,l)
);
},
{
closed = 1;
nodes = (
(59,337,l),
(59,308,l),
(475,308,l),
(475,337,l)
);
},
{
closed = 1;
nodes = (
(465,337,l),
(465,330,l),
(453,80,o),
(440,-9,o),
(421,-30,cs),
(413,-39,o),
(404,-40,o),
(387,-40,cs),
(372,-40,o),
(325,-40,o),
(275,-35,c),
(280,-44,o),
(283,-56,o),
(284,-66,c),
(328,-69,o),
(373,-70,o),
(394,-69,cs),
(419,-69,o),
(433,-64,o),
(446,-49,cs),
(471,-21,o),
(482,62,o),
(495,317,cs),
(495,324,o),
(496,337,o),
(496,337,c)
);
},
{
closed = 1;
nodes = (
(265,478,l),
(252,237,o),
(222,48,o),
(45,-52,c),
(53,-56,o),
(64,-66,o),
(69,-73,c),
(248,34,o),
(282,225,o),
(295,478,c)
);
}
);
vertWidth = 1000;
width = 1000;
},
{
layerId = "94DDBC6A-1627-4027-9125-871D02041BCD";
shapes = (
{
closed = 1;
nodes = (
(563,732,l),
(563,160,l),
(704,160,l),
(704,732,l)
);
},
{
closed = 1;
nodes = (
(792,834,l),
(792,74,ls),
(792,57,o),
(786,52,o),
(768,52,cs),
(750,52,o),
(694,52,o),
(642,55,c),
(662,13,o),
(683,-54,o),
(688,-96,c),
(773,-96,o),
(836,-91,o),
(880,-67,cs),
(923,-43,o),
(936,-3,o),
(936,73,cs),
(936,834,l)
);
},
{
closed = 1;
nodes = (
(204,685,l),
(361,685,l),
(361,579,l),
(204,579,l)
);
},
{
closed = 1;
nodes = (
(73,812,l),
(73,451,l),
(501,451,l),
(501,812,l)
);
},
{
closed = 1;
nodes = (
(50,379,l),
(50,248,l),
(440,248,l),
(440,379,l)
);
},
{
closed = 1;
nodes = (
(381,379,l),
(381,357,l),
(376,147,o),
(368,71,o),
(354,52,cs),
(345,42,o),
(337,39,o),
(324,39,cs),
(308,39,o),
(281,40,o),
(250,43,c),
(272,6,o),
(287,-52,o),
(289,-94,c),
(334,-94,o),
(375,-93,o),
(401,-88,cs),
(432,-82,o),
(454,-71,o),
(477,-42,cs),
(504,-7,o),
(513,92,o),
(520,326,cs),
(521,343,o),
(522,379,o),
(522,379,c)
);
},
{
closed = 1;
nodes = (
(192,451,l),
(186,232,o),
(177,106,o),
(18,13,c),
(49,-12,o),
(86,-59,o),
(103,-95,c),
(287,13,o),
(319,189,o),
(327,451,c)
);
}
);
vertWidth = 1000;
width = 1000;
}
);
note = cid11191;
unicode = 21035;
}
{
glyphname = uni5236;
layers = (
{
layerId = m01;
shapes = (
{
closed = 1;
nodes = (
(661,712,l),
(661,169,l),
(691,169,l),
(691,712,l)
);
},
{
closed = 1;
nodes = (
(871,813,l),
(871,-17,ls),
(871,-36,o),
(865,-42,o),
(848,-43,cs),
(831,-44,o),
(776,-44,o),
(704,-42,c),
(710,-50,o),
(716,-63,o),
(717,-71,c),
(803,-72,o),
(845,-73,o),
(868,-67,cs),
(890,-61,o),
(901,-49,o),
(901,-16,cs),
(901,813,l)
);
},
{
closed = 1;
nodes = (
(314,829,l),
(314,-70,l),
(343,-70,l),
(343,829,l)
);
},
{
closed = 1;
nodes = (
(523,342,l),
(523,49,ls),
(523,38,o),
(520,34,o),
(508,34,c),
(494,32,o),
(455,32,o),
(397,34,c),
(403,25,o),
(408,14,o),
(410,5,c),
(471,5,o),
(510,5,o),
(528,11,cs),
(548,17,o),
(553,27,o),
(553,49,cs),
(553,342,l)
);
},
{
closed = 1;
nodes = (
(111,342,l),
(111,6,l),
(140,6,l),
(140,313,l),
(546,313,l),
(546,342,l)
);
},
{
closed = 1;
nodes = (
(49,494,l),
(49,464,l),
(605,464,l),
(605,494,l)
);
},
{
closed = 1;
nodes = (
(141,670,l),
(135,641,l),
(560,641,l),
(560,670,l)
);
},
{
closed = 1;
nodes = (
(159,800,l),
(141,695,o),
(109,588,o),
(76,522,c),
(84,520,o),
(97,515,o),
(105,510,c),
(138,579,o),
(170,688,o),
(188,794,c)
);
}
);
vertWidth = 1000;
width = 1000;
},
{
layerId = "94DDBC6A-1627-4027-9125-871D02041BCD";
shapes = (
{
closed = 1;
nodes = (
(603,732,l),
(603,160,l),
(738,160,l),
(738,732,l)
);
},
{
closed = 1;
nodes = (
(807,834,l),
(807,69,ls),
(807,53,o),
(801,48,o),
(785,48,cs),
(768,48,o),
(718,48,o),
(670,50,c),
(688,9,o),
(708,-55,o),
(713,-95,c),
(792,-95,o),
(852,-90,o),
(893,-67,cs),
(933,-43,o),
(946,-5,o),
(946,68,cs),
(946,834,l)
);
},
{
closed = 1;
nodes = (
(241,847,l),
(241,-94,l),
(379,-94,l),
(379,847,l)
);
},
{
closed = 1;
nodes = (
(429,353,l),
(429,110,ls),
(429,101,o),
(427,99,o),
(420,99,cs),
(413,99,o),
(391,99,o),
(372,100,c),
(388,65,o),
(403,11,o),
(406,-22,c),
(452,-23,o),
(489,-21,o),
(520,-1,cs),
(552,20,o),
(559,54,o),
(559,107,cs),
(559,353,l)
);
},
{
closed = 1;
nodes = (
(62,353,l),
(62,-16,l),
(191,-16,l),
(191,224,l),
(494,224,l),
(494,353,l)
);
},
{
closed = 1;
nodes = (
(26,530,l),
(26,399,l),
(571,399,l),
(571,530,l)
);
},
{
closed = 1;
nodes = (
(141,728,l),
(115,597,l),
(545,597,l),
(545,728,l)
);
},
{
closed = 1;
nodes = (
(89,839,l),
(78,739,o),
(49,636,o),
(15,571,c),
(50,559,o),
(113,534,o),
(143,515,c),
(177,588,o),
(208,702,o),
(223,811,c)
);
}
);
vertWidth = 1000;
width = 1000;
}
);
note = cid11206;
unicode = 21046;
}
{
glyphname = uni524D;
layers = (
{
layerId = m01;
shapes = (
{
closed = 1;
nodes = (
(146,354,l),
(146,324,l),
(440,324,l),
(440,354,l)
);
},
{
closed = 1;
nodes = (
(146,187,l),
(146,158,l),
(440,158,l),
(440,187,l)
);
},
{
closed = 1;
nodes = (
(61,657,l),
(61,627,l),
(939,627,l),
(939,657,l)
);
},
{
closed = 1;
nodes = (
(590,509,l),
(590,98,l),
(620,98,l),
(620,509,l)
);
},
{
closed = 1;
nodes = (
(425,518,l),
(425,-21,ls),
(425,-36,o),
(421,-40,o),
(405,-41,cs),
(390,-42,o),
(340,-42,o),
(277,-40,c),
(281,-50,o),
(287,-63,o),
(289,-70,c),
(361,-70,o),
(405,-70,o),
(427,-65,cs),
(447,-59,o),
(454,-47,o),
(454,-21,cs),
(454,518,l)
);
},
{
closed = 1;
nodes = (
(830,542,l),
(830,-21,ls),
(830,-37,o),
(825,-41,o),
(809,-42,cs),
(792,-43,o),
(736,-43,o),
(665,-42,c),
(670,-51,o),
(675,-64,o),
(677,-72,c),
(758,-72,o),
(805,-72,o),
(828,-66,cs),
(851,-61,o),
(860,-50,o),
(860,-20,cs),
(860,542,l)
);
},
{
closed = 1;
nodes = (
(132,518,l),
(132,-72,l),
(161,-72,l),
(161,488,l),
(441,488,l),
(441,518,l)
);
},
{
closed = 1;
nodes = (
(226,817,l),
(267,769,o),
(311,705,o),
(330,664,c),
(357,676,l),
(336,717,o),
(291,781,o),
(250,827,c)
);
},
{
closed = 1;
nodes = (
(749,831,l),
(724,785,o),
(677,717,o),
(642,675,c),
(668,663,l),
(703,704,o),
(745,766,o),
(778,818,c)
);
}
);
vertWidth = 1000;
width = 1000;
},
{
layerId = "94DDBC6A-1627-4027-9125-871D02041BCD";
shapes = (
{
closed = 1;
nodes = (
(168,356,l),
(168,251,l),
(416,251,l),
(416,356,l)
);
},
{
closed = 1;
nodes = (
(168,206,l),
(168,101,l),
(416,101,l),
(416,206,l)
);
},
{
closed = 1;
nodes = (
(41,707,l),
(41,576,l),
(960,576,l),
(960,707,l)
);
},
{
closed = 1;
nodes = (
(550,508,l),
(550,98,l),
(688,98,l),
(688,508,l)
);
},
{
closed = 1;
nodes = (
(350,519,l),
(350,38,ls),
(350,27,o),
(346,23,o),
(334,23,cs),
(322,22,o),
(284,22,o),
(255,24,c),
(273,-8,o),
(293,-62,o),
(300,-98,c),
(359,-98,o),
(405,-96,o),
(442,-75,cs),
(479,-55,o),
(490,-22,o),
(490,36,cs),
(490,519,l)
);
},
{
closed = 1;
nodes = (
(752,534,l),
(752,55,ls),
(752,42,o),
(747,38,o),
(731,38,cs),
(715,37,o),
(663,37,o),
(618,40,c),
(639,3,o),
(662,-58,o),
(669,-97,c),
(740,-98,o),
(796,-94,o),
(839,-72,cs),
(883,-50,o),
(895,-14,o),
(895,53,cs),
(895,534,l)
);
},
{
closed = 1;
nodes = (
(101,519,l),
(101,-94,l),
(238,-94,l),
(238,398,l),
(415,398,l),
(415,519,l)
);
},
{
closed = 1;
nodes = (
(169,800,l),
(202,761,o),
(238,707,o),
(250,672,c),
(398,723,l),
(382,761,o),
(343,811,o),
(308,848,c)
);
},
{
closed = 1;
nodes = (
(682,857,l),
(662,814,o),
(625,758,o),
(595,720,c),
(727,674,l),
(759,706,o),
(801,755,o),
(842,809,c)
);
}
);
vertWidth = 1000;
width = 1000;
}
);
note = cid11237;
unicode = 21069;
}
{
glyphname = uni5357;
layers = (
{
layerId = m01;
shapes = (
{
closed = 1;
nodes = (
(64,708,l),
(64,679,l),
(937,679,l),
(937,708,l)
);
},
{
closed = 1;
nodes = (
(257,340,l),
(257,311,l),
(756,311,l),
(756,340,l)
);
},
{
closed = 1;
nodes = (
(236,174,l),
(236,144,l),
(770,144,l),
(770,174,l)
);
},
{
closed = 1;
nodes = (
(482,327,l),
(482,-61,l),
(512,-61,l),
(512,327,l)
);
},
{
closed = 1;
nodes = (
(135,547,l),
(135,-70,l),
(165,-70,l),
(165,518,l),
(857,518,l),
(857,547,l)
);
},
{
closed = 1;
nodes = (
(840,547,l),
(840,-18,ls),
(840,-35,o),
(836,-40,o),
(818,-41,cs),
(799,-42,o),
(738,-43,o),
(661,-40,c),
(667,-51,o),
(672,-64,o),
(674,-73,c),
(757,-73,o),
(812,-73,o),
(837,-67,cs),
(862,-62,o),
(869,-48,o),
(869,-17,cs),
(869,547,l)
);
},
{
closed = 1;
nodes = (
(320,478,l),
(349,439,o),
(378,385,o),
(388,349,c),
(414,360,l),
(403,396,o),
(374,449,o),
(343,488,c)
);
},
{
closed = 1;
nodes = (
(649,493,l),
(630,450,o),
(603,398,o),
(578,360,c),
(600,350,l),
(626,386,o),
(656,437,o),
(676,482,c)
);
},
{
closed = 1;
nodes = (
(482,830,l),
(482,531,l),
(512,531,l),
(512,830,l)
);
}
);
vertWidth = 1000;
width = 1000;
},
{
layerId = "94DDBC6A-1627-4027-9125-871D02041BCD";
shapes = (
{
closed = 1;
nodes = (
(50,777,l),
(50,642,l),
(950,642,l),
(950,777,l)
);
},
{
closed = 1;
nodes = (
(283,336,l),
(283,225,l),
(724,225,l),
(724,336,l)
);
},
{
closed = 1;
nodes = (
(265,174,l),
(265,59,l),
(740,59,l),
(740,174,l)
);
},
{
closed = 1;
nodes = (
(430,281,l),
(430,-70,l),
(568,-70,l),
(568,281,l)
);
},
{
closed = 1;
nodes = (
(93,584,l),
(93,-95,l),
(239,-95,l),
(239,451,l),
(807,451,l),
(807,584,l)
);
},
{
closed = 1;
nodes = (
(768,584,l),
(768,42,ls),
(768,27,o),
(762,22,o),
(744,22,cs),
(729,21,o),
(666,21,o),
(625,24,c),
(643,-8,o),
(665,-61,o),
(672,-97,c),
(752,-97,o),
(812,-96,o),
(857,-76,cs),
(902,-56,o),
(918,-25,o),
(918,41,cs),
(918,584,l)
);
},
{
closed = 1;
nodes = (
(312,419,l),
(328,384,o),
(342,343,o),
(348,314,c),
(466,345,l),
(459,373,o),
(444,412,o),
(427,445,c)
);
},
{
closed = 1;
nodes = (
(568,448,l),
(560,411,o),
(547,371,o),
(534,344,c),
(638,315,l),
(655,340,o),
(677,379,o),
(695,417,c)
);
},
{
closed = 1;
nodes = (
(422,855,l),
(422,504,l),
(577,504,l),
(577,855,l)
);
}
);
vertWidth = 1000;
width = 1000;
}
);
note = cid11679;
unicode = 21335;
}
{
glyphname = uni5427;
layers = (
{
layerId = m01;
shapes = (
{
closed = 1;
nodes = (
(99,719,l),
(99,690,l),
(305,690,l),
(305,245,l),
(99,245,l),
(99,216,l),
(334,216,l),
(334,719,l)
);
},
{
closed = 1;
nodes = (
(83,719,l),
(83,114,l),
(112,114,l),
(112,719,l)
);
},
{
closed = 1;
nodes = (
(445,400,l),
(445,371,l),
(885,371,l),
(885,400,l)
);
},
{
closed = 1;
nodes = (
(441,773,l),
(441,743,l),
(869,743,l),
(869,319,l),
(899,319,l),
(899,773,l)
);
},
{
closed = 1;
nodes = (
(428,773,l),
(428,51,ls),
(428,-28,o),
(456,-47,o),
(545,-47,cs),
(566,-47,o),
(813,-47,o),
(836,-47,cs),
(928,-47,o),
(940,-2,o),
(949,153,c),
(939,156,o),
(927,161,o),
(918,168,c),
(911,18,o),
(902,-18,o),
(840,-18,cs),
(793,-18,o),
(575,-18,o),
(541,-18,cs),
(472,-18,o),
(457,-2,o),
(457,50,cs),
(457,773,l)
);
},
{
closed = 1;
nodes = (
(644,762,l),
(644,384,l),
(673,384,l),
(673,762,l)
);
}
);
vertWidth = 1000;
width = 1000;
},
{
layerId = "94DDBC6A-1627-4027-9125-871D02041BCD";
shapes = (
{
closed = 1;
nodes = (
(141,767,l),
(141,633,l),
(242,633,l),
(242,325,l),
(141,325,l),
(141,191,l),
(376,191,l),
(376,767,l)
);
},
{
closed = 1;
nodes = (
(59,767,l),
(59,105,l),
(192,105,l),
(192,767,l)
);
},
{
closed = 1;
nodes = (
(510,464,l),
(510,327,l),
(859,327,l),
(859,464,l)
);
},
{
closed = 1;
nodes = (
(507,811,l),
(507,674,l),
(793,674,l),
(793,290,l),
(933,290,l),
(933,811,l)
);
},
{
closed = 1;
nodes = (
(421,811,l),
(421,128,ls),
(421,-34,o),
(464,-75,o),
(603,-75,cs),
(633,-75,o),
(763,-75,o),
(797,-75,cs),
(923,-75,o),
(963,-11,o),
(979,163,c),
(941,169,o),
(881,196,o),
(848,219,c),
(839,88,o),
(831,63,o),
(782,63,cs),
(759,63,o),
(643,63,o),
(619,63,cs),
(567,63,o),
(561,70,o),
(561,128,cs),
(561,811,l)
);
},
{
closed = 1;
nodes = (
(614,761,l),
(614,395,l),
(737,395,l),
(737,761,l)
);
}
);
vertWidth = 1000;
width = 1000;
}
);
note = cid11991;
unicode = 21543;
}
{
glyphname = uni5514;
layers = (
{
layerId = m01;
shapes = (
{
closed = 1;
nodes = (
(100,720,l),
(100,691,l),
(301,691,l),
(301,246,l),
(100,246,l),
(100,217,l),
(330,217,l),
(330,720,l)
);
},
{
closed = 1;
nodes = (
(84,720,l),
(84,125,l),
(113,125,l),
(113,720,l)
);
},
{
closed = 1;
nodes = (
(387,778,l),
(387,749,l),
(921,749,l),
(921,778,l)
);
},
{
closed = 1;
nodes = (
(360,402,l),
(360,373,l),
(950,373,l),
(950,402,l)
);
},
{
closed = 1;
nodes = (
(427,273,l),
(427,-71,l),
(456,-71,l),
(456,243,l),
(858,243,l),
(858,-67,l),
(887,-67,l),
(887,273,l)
);
},
{
closed = 1;
nodes = (
(442,4,l),
(442,-25,l),
(872,-25,l),
(872,4,l)
);
},
{
closed = 1;
nodes = (
(410,612,l),
(410,582,l),
(807,582,l),
(807,385,l),
(836,385,l),
(836,612,l)
);
},
{
closed = 1;
nodes = (
(584,767,l),
(560,650,o),
(520,481,o),
(491,385,c),
(521,385,l),
(549,478,o),
(588,646,o),
(613,767,c)
);
}
);
vertWidth = 1000;
width = 1000;
},
{
layerId = "94DDBC6A-1627-4027-9125-871D02041BCD";
shapes = (
{
closed = 1;
nodes = (
(135,768,l),
(135,637,l),
(235,637,l),
(235,307,l),
(135,307,l),
(135,175,l),
(362,175,l),
(362,768,l)
);
},
{
closed = 1;
nodes = (
(59,768,l),
(59,88,l),
(184,88,l),
(184,768,l)
);
},
{
closed = 1;
nodes = (
(392,812,l),
(392,690,l),
(951,690,l),
(951,812,l)
);
},
{
closed = 1;
nodes = (
(378,436,l),
(378,310,l),
(976,310,l),
(976,436,l)
);
},
{
closed = 1;
nodes = (
(418,271,l),
(418,-95,l),
(554,-95,l),
(554,150,l),
(779,150,l),
(779,-92,l),
(922,-92,l),
(922,271,l)
);
},
{
closed = 1;
nodes = (
(468,63,l),
(468,-61,l),
(853,-61,l),
(853,63,l)
);
},
{
closed = 1;
nodes = (
(414,636,l),
(414,514,l),
(748,514,l),
(748,375,l),
(885,375,l),
(885,636,l)
);
},
{
closed = 1;
nodes = (
(556,764,l),
(539,639,o),
(510,486,o),
(483,384,c),
(635,384,l),
(658,481,o),
(687,634,o),
(708,764,c)
);
}
);
vertWidth = 1000;
width = 1000;
}
);
note = cid12343;
unicode = 21780;
}
{
glyphname = uni553E;
layers = (
{
layerId = m01;
shapes = (
{
closed = 1;
nodes = (
(872,817,l),
(761,791,o),
(545,770,o),
(371,761,c),
(375,753,o),
(379,743,o),
(379,735,c),
(557,744,o),
(771,765,o),
(898,793,c)
);
},
{
closed = 1;
nodes = (
(350,612,l),
(350,583,l),
(925,583,l),
(925,612,l)
);
},
{
closed = 1;
nodes = (
(320,-15,l),
(320,-44,l),
(950,-44,l),
(950,-15,l)
);
},
{
closed = 1;
nodes = (
(350,195,l),
(350,166,l),
(925,166,l),
(925,195,l)
);
},
{
closed = 1;
nodes = (
(328,404,l),
(328,375,l),
(947,375,l),
(947,404,l)
);
},
{
closed = 1;
nodes = (
(623,774,l),
(623,-29,l),
(652,-29,l),
(652,774,l)
);
},
{
closed = 1;
nodes = (
(449,598,l),
(449,180,l),
(478,180,l),
(478,598,l)
);
},
{
closed = 1;
nodes = (
(797,598,l),
(797,180,l),
(826,180,l),
(826,598,l)
);
},
{
closed = 1;
nodes = (
(99,720,l),
(99,691,l),
(277,691,l),
(277,241,l),
(99,241,l),
(99,212,l),
(306,212,l),
(306,720,l)
);
},
{
closed = 1;
nodes = (
(84,720,l),
(84,122,l),
(113,122,l),
(113,720,l)
);
}
);
vertWidth = 1000;
width = 1000;
},
{
layerId = "94DDBC6A-1627-4027-9125-871D02041BCD";
shapes = (
{
closed = 1;
nodes = (
(850,855,l),
(748,824,o),
(555,798,o),
(381,791,c),
(396,761,o),
(412,710,o),
(416,679,c),
(597,682,o),
(816,710,o),
(945,748,c)
);
},
{
closed = 1;
nodes = (
(382,632,l),
(382,515,l),
(952,515,l),
(952,632,l)
);
},
{
closed = 1;
nodes = (
(341,54,l),
(341,-70,l),
(976,-70,l),
(976,54,l)
);
},
{
closed = 1;
nodes = (
(382,245,l),
(382,128,l),
(952,128,l),
(952,245,l)
);
},
{
closed = 1;
nodes = (
(354,441,l),
(354,320,l),
(975,320,l),
(975,441,l)
);
},
{
closed = 1;
nodes = (
(597,743,l),
(597,-6,l),
(735,-6,l),
(735,743,l)
);
},
{
closed = 1;
nodes = (
(428,575,l),
(428,185,l),
(554,185,l),
(554,575,l)
);
},
{
closed = 1;
nodes = (
(778,575,l),
(778,185,l),
(906,185,l),
(906,575,l)
);
},
{
closed = 1;
nodes = (
(113,753,l),
(113,624,l),
(218,624,l),
(218,307,l),
(113,307,l),
(113,179,l),
(340,179,l),
(340,753,l)
);
},
{
closed = 1;
nodes = (
(55,753,l),
(55,95,l),
(173,95,l),
(173,753,l)
);
}
);
vertWidth = 1000;
width = 1000;
}
);
note = cid12408;
unicode = 21822;
}
{
glyphname = uni5F00;
layers = (
{
layerId = m01;
shapes = (
{
closed = 1;
nodes = (
(100,758,l),
(100,728,l),
(908,728,l),
(908,758,l)
);
},
{
closed = 1;
nodes = (
(59,402,l),
(59,373,l),
(942,373,l),
(942,402,l)
);
},
{
closed = 1;
nodes = (
(667,749,l),
(667,-71,l),
(696,-71,l),
(696,749,l)
);
},
{
closed = 1;
nodes = (
(308,750,l),
(308,459,ls),
(308,274,o),
(284,88,o),
(61,-52,c),
(69,-57,o),
(78,-66,o),
(82,-73,c),
(312,72,o),
(337,264,o),
(337,459,cs),
(337,750,l)
);
}
);
vertWidth = 1000;
width = 1000;
},
{
layerId = "94DDBC6A-1627-4027-9125-871D02041BCD";
shapes = (
{
closed = 1;
nodes = (
(73,801,l),
(73,664,l),
(933,664,l),
(933,801,l)
);
},
{
closed = 1;
nodes = (
(42,442,l),
(42,303,l),
(961,303,l),
(961,442,l)
);
},
{
closed = 1;
nodes = (
(597,719,l),
(597,-96,l),
(750,-96,l),
(750,719,l)
);
},
{
closed = 1;
nodes = (
(251,718,l),
(251,464,ls),
(251,308,o),
(229,130,o),
(26,9,c),
(63,-15,o),
(119,-67,o),
(145,-100,c),
(375,45,o),
(401,271,o),
(401,463,cs),
(401,718,l)
);
}
);
vertWidth = 1000;
width = 1000;
}
);
note = cid17135;
unicode = 24320;
}
{
glyphname = uni5FC5;
layers = (
{
layerId = m01;
shapes = (
{
closed = 1;
nodes = (
(327,570,l),
(327,21,ls),
(327,-50,o),
(352,-65,o),
(435,-65,cs),
(455,-65,o),
(644,-65,o),
(665,-65,cs),
(759,-65,o),
(771,-16,o),
(779,162,c),
(770,165,o),
(759,171,o),
(749,178,c),
(742,2,o),
(732,-36,o),
(667,-36,cs),
(624,-36,o),
(463,-36,o),
(432,-36,cs),
(371,-36,o),
(356,-24,o),
(356,19,cs),
(356,570,l)
);
},
{
closed = 1;
nodes = (
(317,805,l),
(426,760,o),
(542,696,o),
(618,639,c),
(637,664,l),
(559,721,o),
(443,783,o),
(334,826,c)
);
},
{
closed = 1;
nodes = (
(155,493,l),
(139,357,o),
(94,230,o),
(39,163,c),
(63,146,l),
(120,216,o),
(166,347,o),
(182,487,c)
);
},
{
closed = 1;
nodes = (
(761,485,l),
(834,380,o),
(908,239,o),
(936,145,c),
(964,157,l),
(935,249,o),
(862,390,o),
(786,495,c)
);
},
{
closed = 1;
nodes = (
(818,770,l),
(662,460,o),
(392,181,o),
(40,23,c),
(47,17,o),
(56,7,o),
(60,0,c),
(414,164,o),
(679,440,o),
(846,757,c)
);
}
);
vertWidth = 1000;
width = 1000;
},
{
layerId = "94DDBC6A-1627-4027-9125-871D02041BCD";
shapes = (
{
closed = 1;
nodes = (
(299,575,l),
(299,96,ls),
(299,-46,o),
(337,-92,o),
(478,-92,cs),
(505,-92,o),
(593,-92,o),
(622,-92,cs),
(749,-92,o),
(787,-31,o),
(802,156,c),
(762,166,o),
(700,192,o),
(667,218,c),
(660,70,o),
(652,40,o),
(609,40,cs),
(588,40,o),
(518,40,o),
(499,40,cs),
(456,40,o),
(451,46,o),
(451,96,cs),
(451,575,l)
);
},
{
closed = 1;
nodes = (
(281,746,l),
(385,700,o),
(484,639,o),
(538,588,c),
(642,711,l),
(583,759,o),
(483,814,o),
(382,854,c)
);
},
{
closed = 1;
nodes = (
(116,522,l),
(101,413,o),
(63,298,o),
(17,224,c),
(158,165,l),
(203,241,o),
(241,365,o),
(256,487,c)
);
},
{
closed = 1;
nodes = (
(704,451,l),
(766,351,o),
(820,232,o),
(844,142,c),
(986,217,l),
(960,304,o),
(902,420,o),
(837,519,c)
);
},
{
closed = 1;
nodes = (
(750,797,l),
(622,524,o),
(356,217,o),
(20,63,c),
(50,34,o),
(93,-19,o),
(115,-53,c),
(474,126,o),
(737,433,o),
(897,739,c)
);
}
);
vertWidth = 1000;
width = 1000;
}
);
note = cid17490;
unicode = 24517;
}
{
glyphname = uni5FEB;
layers = (
{
layerId = m01;
shapes = (
{
closed = 1;
nodes = (
(398,663,l),
(398,633,l),
(823,633,l),
(823,340,l),
(853,340,l),
(853,663,l)
);
},
{
closed = 1;
nodes = (
(334,358,l),
(334,328,l),
(955,328,l),
(955,358,l)
);
},
{
closed = 1;
nodes = (
(612,344,l),
(666,153,o),
(780,-8,o),
(941,-73,c),
(946,-65,o),
(956,-53,o),
(964,-47,c),
(804,11,o),
(689,170,o),
(637,352,c)
);
},
{
closed = 1;
nodes = (
(599,831,l),
(599,518,ls),
(599,337,o),
(593,102,o),
(298,-50,c),
(304,-56,o),
(314,-66,o),
(318,-73,c),
(618,87,o),
(628,329,o),
(628,519,cs),
(628,831,l)
);
},
{
closed = 1;
nodes = (
(205,831,l),
(205,-68,l),
(234,-68,l),
(234,831,l)
);
},
{
closed = 1;
nodes = (
(101,643,l),
(98,556,o),
(80,450,o),
(41,390,c),
(68,377,l),
(109,441,o),
(128,552,o),
(130,638,c)
);
},
{
closed = 1;
nodes = (
(278,663,l),
(310,608,o),
(343,533,o),
(357,487,c),
(382,504,l),
(370,547,o),
(335,620,o),
(302,674,c)
);
}
);
vertWidth = 1000;
width = 1000;
},
{
layerId = "94DDBC6A-1627-4027-9125-871D02041BCD";
shapes = (
{
closed = 1;
nodes = (
(412,708,l),
(412,574,l),
(769,574,l),
(769,341,l),
(911,341,l),
(911,708,l)
);
},
{
closed = 1;
nodes = (
(362,416,l),
(362,278,l),
(975,278,l),
(975,416,l)
);
},
{
closed = 1;
nodes = (
(581,363,l),
(633,147,o),
(712,-14,o),
(886,-98,c),
(908,-55,o),
(955,8,o),
(989,39,c),
(835,98,o),
(753,227,o),
(712,387,c)
);
},
{
closed = 1;
nodes = (
(558,855,l),
(558,489,ls),
(558,324,o),
(543,123,o),
(322,12,c),
(354,-13,o),
(398,-61,o),
(424,-98,c),
(654,44,o),
(702,281,o),
(702,488,cs),
(702,855,l)
);
},
{
closed = 1;
nodes = (
(160,855,l),
(160,-95,l),
(302,-95,l),
(302,855,l)
);
},
{
closed = 1;
nodes = (
(59,654,l),
(58,563,o),
(45,452,o),
(14,390,c),
(114,346,l),
(149,423,o),
(162,541,o),
(160,641,c)
);
},
{
closed = 1;
nodes = (
(269,646,l),
(301,581,o),
(331,496,o),
(339,443,c),
(431,485,l),
(422,538,o),
(389,620,o),
(355,683,c)
);
}
);
vertWidth = 1000;
width = 1000;
}
);
note = cid17549;
unicode = 24555;
}
{
glyphname = uni601D;
layers = (
{
layerId = m01;
shapes = (
{
closed = 1;
nodes = (
(317,229,l),
(317,13,ls),
(317,-41,o),
(342,-51,o),
(425,-51,cs),
(443,-51,o),
(586,-51,o),
(605,-51,cs),
(684,-51,o),
(697,-20,o),
(703,110,c),
(694,112,o),
(683,117,o),
(674,124,c),
(669,-3,o),
(660,-21,o),
(604,-21,cs),
(563,-21,o),
(451,-21,o),
(422,-21,cs),
(358,-21,o),
(347,-15,o),
(347,12,cs),
(347,229,l)
);
},
{
closed = 1;
nodes = (
(370,313,l),
(448,279,o),
(534,220,o),
(574,171,c),
(596,194,l),
(555,243,o),
(470,300,o),
(391,334,c)
);
},
{
closed = 1;
nodes = (
(735,216,l),
(814,151,o),
(886,63,o),
(922,-13,c),
(949,3,l),
(910,80,o),
(837,168,o),
(760,231,c)
);
},
{
closed = 1;
nodes = (
(194,221,l),
(167,121,o),
(116,40,o),
(51,-5,c),
(74,-22,l),
(137,23,o),
(190,107,o),
(220,213,c)
);
},
{
closed = 1;
nodes = (
(193,557,l),
(809,557,l),
(809,386,l),
(193,386,l)
);
},
{
closed = 1;
nodes = (
(193,755,l),
(809,755,l),
(809,586,l),
(193,586,l)
);
},
{
closed = 1;
nodes = (
(164,784,l),
(164,357,l),
(838,357,l),
(838,784,l)
);
},
{
closed = 1;
nodes = (
(483,773,l),
(483,372,l),
(513,372,l),
(513,773,l)
);
}
);
vertWidth = 1000;
width = 1000;
},
{
layerId = "94DDBC6A-1627-4027-9125-871D02041BCD";
shapes = (
{
closed = 1;
nodes = (
(290,228,l),
(290,82,ls),
(290,-38,o),
(322,-79,o),
(459,-79,cs),
(487,-79,o),
(541,-79,o),
(569,-79,cs),
(674,-79,o),
(712,-43,o),
(728,101,c),
(689,109,o),
(628,131,o),
(600,152,c),
(595,62,o),
(589,49,o),
(556,49,cs),
(535,49,o),
(496,49,o),
(479,49,cs),
(440,49,o),
(434,52,o),
(434,84,cs),
(434,228,l)
);
},
{
closed = 1;
nodes = (
(356,270,l),
(428,229,o),
(494,178,o),
(529,139,c),
(633,237,l),
(595,278,o),
(525,326,o),
(451,361,c)
);
},
{
closed = 1;
nodes = (
(674,195,l),
(742,122,o),
(805,31,o),
(837,-40,c),
(976,41,l),
(941,112,o),
(873,200,o),
(802,268,c)
);
},
{
closed = 1;
nodes = (
(150,246,l),
(128,156,o),
(82,78,o),
(20,30,c),
(142,-52,l),
(206,3,o),
(256,95,o),
(281,203,c)
);
},
{
closed = 1;
nodes = (
(277,512,l),
(719,512,l),
(719,449,l),
(277,449,l)
);
},
{
closed = 1;
nodes = (
(277,689,l),
(719,689,l),
(719,628,l),
(277,628,l)
);
},
{
closed = 1;
nodes = (
(140,814,l),
(140,324,l),
(863,324,l),
(863,814,l)
);
},
{
closed = 1;
nodes = (
(425,758,l),
(425,375,l),
(566,375,l),
(566,758,l)
);
}
);
vertWidth = 1000;
width = 1000;
}
);
note = cid17625;
unicode = 24605;
}
{
glyphname = uni609F;
layers = (
{
layerId = m01;
shapes = (
{
closed = 1;
nodes = (
(195,831,l),
(195,-68,l),
(225,-68,l),
(225,831,l)
);
},
{
closed = 1;
nodes = (
(91,643,l),
(89,557,o),
(72,450,o),
(35,390,c),
(61,377,l),
(100,441,o),
(118,553,o),
(120,638,c)
);
},
{
closed = 1;
nodes = (
(263,663,l),
(294,607,o),
(327,531,o),
(339,485,c),
(365,501,l),
(353,545,o),
(320,618,o),
(287,674,c)
);
},
{
closed = 1;
nodes = (
(358,782,l),
(358,753,l),
(920,753,l),
(920,782,l)
);
},
{
closed = 1;
nodes = (
(320,401,l),
(320,372,l),
(953,372,l),
(953,401,l)
);
},
{
closed = 1;
nodes = (
(395,614,l),
(395,584,l),
(805,584,l),
(805,394,l),
(835,394,l),
(835,614,l)
);
},
{
closed = 1;
nodes = (
(407,268,l),
(407,-71,l),
(436,-71,l),
(436,238,l),
(835,238,l),
(835,-68,l),
(865,-68,l),
(865,268,l)
);
},
{
closed = 1;
nodes = (
(421,4,l),
(421,-25,l),
(851,-25,l),
(851,4,l)
);
},
{
closed = 1;
nodes = (
(576,774,l),
(552,657,o),
(513,486,o),
(484,389,c),
(516,389,l),
(543,483,o),
(582,651,o),
(606,770,c)
);
}
);
vertWidth = 1000;
width = 1000;
},
{
layerId = "94DDBC6A-1627-4027-9125-871D02041BCD";
shapes = (
{
closed = 1;
nodes = (
(151,855,l),
(151,-95,l),
(291,-95,l),
(291,855,l)
);
},
{
closed = 1;
nodes = (
(59,654,l),
(58,563,o),
(44,452,o),
(14,389,c),
(107,348,l),
(141,425,o),
(155,543,o),
(153,642,c)
);
},
{
closed = 1;
nodes = (
(255,646,l),
(287,581,o),
(317,496,o),
(325,443,c),
(414,484,l),
(405,537,o),
(372,619,o),
(338,682,c)
);
},
{
closed = 1;
nodes = (
(389,820,l),
(389,696,l),
(938,696,l),
(938,820,l)
);
},
{
closed = 1;
nodes = (
(350,435,l),
(350,309,l),
(975,309,l),
(975,435,l)
);
},
{
closed = 1;
nodes = (
(413,636,l),
(413,514,l),
(755,514,l),
(755,369,l),
(898,369,l),
(898,636,l)
);
},
{
closed = 1;
nodes = (
(411,264,l),
(411,-95,l),
(553,-95,l),
(553,140,l),
(766,140,l),
(766,-92,l),
(915,-92,l),
(915,264,l)
);
},
{
closed = 1;
nodes = (
(474,59,l),
(474,-67,l),
(838,-67,l),
(838,59,l)
);
},
{
closed = 1;
nodes = (
(560,775,l),
(542,644,o),
(512,478,o),
(485,373,c),
(634,373,l),
(656,471,o),
(684,631,o),
(705,762,c)
);
}
);
vertWidth = 1000;
width = 1000;
}
);
note = cid17834;
unicode = 24735;
}
{
glyphname = uni60C5;
layers = (
{
layerId = m01;
shapes = (
{
closed = 1;
nodes = (
(195,831,l),
(195,-68,l),
(225,-68,l),
(225,831,l)
);
},
{
closed = 1;
nodes = (
(91,643,l),
(89,557,o),
(72,450,o),
(35,390,c),
(61,377,l),
(100,441,o),
(118,553,o),
(120,638,c)
);
},
{
closed = 1;
nodes = (
(263,685,l),
(292,635,o),
(319,574,o),
(333,528,c),
(360,544,l),
(344,590,o),
(317,649,o),
(288,697,c)
);
},
{
closed = 1;
nodes = (
(379,740,l),
(379,711,l),
(917,711,l),
(917,740,l)
);
},
{
closed = 1;
nodes = (
(341,495,l),
(341,466,l),
(952,466,l),
(952,495,l)
);
},
{
closed = 1;
nodes = (
(414,623,l),
(414,594,l),
(886,594,l),
(886,623,l)
);
},
{
closed = 1;
nodes = (
(628,831,l),
(628,478,l),
(658,478,l),
(658,831,l)
);
},
{
closed = 1;
nodes = (
(443,252,l),
(443,222,l),
(846,222,l),
(846,252,l)
);
},
{
closed = 1;
nodes = (
(443,122,l),
(443,93,l),
(846,93,l),
(846,122,l)
);
},
{
closed = 1;
nodes = (
(428,377,l),
(428,-69,l),
(458,-69,l),
(458,348,l),
(846,348,l),
(846,377,l)
);
},
{
closed = 1;
nodes = (
(830,377,l),
(830,-27,ls),
(830,-38,o),
(826,-42,o),
(813,-43,cs),
(801,-43,o),
(760,-44,o),
(706,-42,c),
(711,-51,o),
(715,-63,o),
(717,-70,c),
(780,-70,o),
(816,-70,o),
(835,-65,cs),
(854,-60,o),
(859,-49,o),
(859,-26,cs),
(859,377,l)
);
}
);
vertWidth = 1000;
width = 1000;
},
{
layerId = "94DDBC6A-1627-4027-9125-871D02041BCD";
shapes = (
{
closed = 1;
nodes = (
(151,855,l),
(151,-95,l),
(291,-95,l),
(291,855,l)
);
},
{
closed = 1;
nodes = (
(59,654,l),
(58,563,o),
(44,452,o),
(14,389,c),
(107,348,l),
(141,425,o),
(155,543,o),
(153,642,c)
);
},
{
closed = 1;
nodes = (
(255,672,l),
(284,614,o),
(311,538,o),
(318,490,c),
(407,530,l),
(399,578,o),
(369,651,o),
(338,707,c)
);
},
{
closed = 1;
nodes = (
(389,786,l),
(389,683,l),
(943,683,l),
(943,786,l)
);
},
{
closed = 1;
nodes = (
(354,531,l),
(354,420,l),
(976,420,l),
(976,531,l)
);
},
{
closed = 1;
nodes = (
(426,657,l),
(426,559,l),
(912,559,l),
(912,657,l)
);
},
{
closed = 1;
nodes = (
(587,855,l),
(587,481,l),
(743,481,l),
(743,855,l)
);
},
{
closed = 1;
nodes = (
(494,265,l),
(494,172,l),
(832,172,l),
(832,265,l)
);
},
{
closed = 1;
nodes = (
(494,145,l),
(494,52,l),
(832,52,l),
(832,145,l)
);
},
{
closed = 1;
nodes = (
(425,391,l),
(425,-95,l),
(566,-95,l),
(566,290,l),
(834,290,l),
(834,391,l)
);
},
{
closed = 1;
nodes = (
(764,391,l),
(764,37,ls),
(764,25,o),
(760,22,o),
(747,21,cs),
(735,21,o),
(692,21,o),
(662,23,c),
(678,-9,o),
(695,-59,o),
(701,-95,c),
(766,-95,o),
(817,-94,o),
(856,-75,cs),
(896,-56,o),
(908,-25,o),
(908,35,cs),
(908,391,l)
);
}
);
vertWidth = 1000;
width = 1000;
}
);
note = cid62292;
unicode = 24773;
}
{
glyphname = uni60F3;
layers = (
{
layerId = m01;
shapes = (
{
closed = 1;
nodes = (
(62,674,l),
(62,645,l),
(469,645,l),
(469,674,l)
);
},
{
closed = 1;
nodes = (
(263,827,l),
(263,263,l),
(292,263,l),
(292,827,l)
);
},
{
closed = 1;
nodes = (
(261,661,l),
(215,539,o),
(125,410,o),
(41,352,c),
(48,346,o),
(57,337,o),
(63,329,c),
(146,394,o),
(237,525,o),
(284,651,c)
);
},
{
closed = 1;
nodes = (
(269,557,l),
(306,531,o),
(416,442,o),
(448,412,c),
(467,437,l),
(438,461,o),
(319,552,o),
(286,573,c)
);
},
{
closed = 1;
nodes = (
(546,589,l),
(861,589,l),
(861,460,l),
(546,460,l)
);
},
{
closed = 1;
nodes = (
(546,430,l),
(861,430,l),
(861,300,l),
(546,300,l)
);
},
{
closed = 1;
nodes = (
(546,746,l),
(861,746,l),
(861,619,l),
(546,619,l)
);
},
{
closed = 1;
nodes = (
(517,775,l),
(517,271,l),
(890,271,l),
(890,775,l)
);
},
{
closed = 1;
nodes = (
(309,185,l),
(309,-5,ls),
(309,-56,o),
(331,-64,o),
(413,-64,cs),
(430,-64,o),
(625,-64,o),
(644,-64,cs),
(715,-64,o),
(727,-39,o),
(732,68,c),
(723,70,o),
(712,74,o),
(703,80,c),
(699,-21,o),
(691,-34,o),
(642,-34,cs),
(603,-34,o),
(438,-34,o),
(410,-34,cs),
(349,-34,o),
(338,-28,o),
(338,-5,cs),
(338,185,l)
);
},
{
closed = 1;
nodes = (
(393,239,l),
(466,201,o),
(545,140,o),
(583,94,c),
(604,114,l),
(566,161,o),
(485,220,o),
(413,257,c)
);
},
{
closed = 1;
nodes = (
(736,173,l),
(813,116,o),
(891,29,o),
(922,-33,c),
(947,-17,l),
(916,47,o),
(836,131,o),
(760,189,c)
);
},
{
closed = 1;
nodes = (
(197,173,l),
(175,99,o),
(129,22,o),
(52,-20,c),
(75,-36,l),
(154,8,o),
(197,87,o),
(223,165,c)
);
}
);
vertWidth = 1000;
width = 1000;
},
{
layerId = "94DDBC6A-1627-4027-9125-871D02041BCD";
shapes = (
{
closed = 1;
nodes = (
(44,716,l),
(44,594,l),
(468,594,l),
(468,716,l)
);
},
{
closed = 1;
nodes = (
(199,854,l),
(199,242,l),
(337,242,l),
(337,854,l)
);
},
{
closed = 1;
nodes = (
(195,634,l),
(159,542,o),
(91,444,o),
(18,390,c),
(47,367,o),
(90,320,o),
(111,289,c),
(187,360,o),
(254,483,o),
(293,603,c)
);
},
{
closed = 1;
nodes = (
(256,501,l),
(299,466,o),
(376,393,o),
(416,348,c),
(492,464,l),
(466,483,o),
(364,554,o),
(330,572,c)
);
},
{
closed = 1;
nodes = (
(637,550,l),
(785,550,l),
(785,511,l),
(637,511,l)
);
},
{
closed = 1;
nodes = (
(637,407,l),
(785,407,l),
(785,367,l),
(637,367,l)
);
},
{
closed = 1;
nodes = (
(637,693,l),
(785,693,l),
(785,655,l),
(637,655,l)
);
},
{
closed = 1;
nodes = (
(505,806,l),
(505,255,l),
(924,255,l),
(924,806,l)
);
},
{
closed = 1;
nodes = (
(284,193,l),
(284,67,ls),
(284,-49,o),
(317,-87,o),
(460,-87,cs),
(489,-87,o),
(575,-87,o),
(605,-87,cs),
(709,-87,o),
(748,-57,o),
(764,62,c),
(726,70,o),
(666,91,o),
(638,111,c),
(633,46,o),
(626,36,o),
(592,36,cs),
(567,36,o),
(498,36,o),
(479,36,cs),
(435,36,o),
(428,39,o),
(428,69,cs),
(428,193,l)
);
},
{
closed = 1;
nodes = (
(371,222,l),
(427,182,o),
(493,123,o),
(521,81,c),
(623,163,l),
(591,206,o),
(522,261,o),
(466,297,c)
);
},
{
closed = 1;
nodes = (
(694,146,l),
(759,83,o),
(826,-5,o),
(850,-66,c),
(976,7,l),
(947,71,o),
(876,153,o),
(810,212,c)
);
},
{
closed = 1;
nodes = (
(148,199,l),
(126,126,o),
(82,58,o),
(22,14,c),
(139,-66,l),
(209,-13,o),
(248,70,o),
(274,154,c)
);
}
);
vertWidth = 1000;
width = 1000;
}
);
note = cid17974;
unicode = 24819;
}
{
glyphname = uni628A;
layers = (
{
layerId = m01;
shapes = (
{
closed = 1;
nodes = (
(50,250,l),
(139,279,o),
(262,322,o),
(378,361,c),
(374,390,l),
(248,348,o),
(120,306,o),
(36,280,c)
);
},
{
closed = 1;
nodes = (
(51,615,l),
(51,585,l),
(370,585,l),
(370,615,l)
);
},
{
closed = 1;
nodes = (
(211,830,l),
(211,-23,ls),
(211,-38,o),
(205,-42,o),
(192,-42,cs),
(180,-43,o),
(137,-43,o),
(85,-42,c),
(90,-51,o),
(96,-64,o),
(98,-70,c),
(161,-71,o),
(194,-70,o),
(213,-65,cs),
(231,-60,o),
(240,-49,o),
(240,-22,cs),
(240,830,l)
);
},
{
closed = 1;
nodes = (
(445,395,l),
(445,366,l),
(885,366,l),
(885,395,l)
);
},
{
closed = 1;
nodes = (
(441,763,l),
(441,733,l),
(869,733,l),
(869,319,l),
(899,319,l),
(899,763,l)
);
},
{
closed = 1;
nodes = (
(428,763,l),
(428,46,ls),
(428,-33,o),
(456,-52,o),
(545,-52,cs),
(566,-52,o),
(813,-52,o),
(836,-52,cs),
(928,-52,o),
(940,-7,o),
(949,133,c),
(939,136,o),
(927,141,o),
(918,148,c),
(911,13,o),
(902,-23,o),
(840,-23,cs),
(793,-23,o),
(575,-23,o),
(541,-23,cs),
(472,-23,o),
(457,-7,o),
(457,45,cs),
(457,763,l)
);
},
{
closed = 1;
nodes = (
(644,752,l),
(644,379,l),
(673,379,l),
(673,752,l)
);
}
);
vertWidth = 1000;
width = 1000;
},
{
layerId = "94DDBC6A-1627-4027-9125-871D02041BCD";
shapes = (
{
closed = 1;
nodes = (
(49,217,l),
(152,242,o),
(282,273,o),
(402,305,c),
(385,438,l),
(253,406,o),
(112,374,o),
(16,356,c)
);
},
{
closed = 1;
nodes = (
(33,674,l),
(33,540,l),
(385,540,l),
(385,674,l)
);
},
{
closed = 1;
nodes = (
(149,855,l),
(149,57,ls),
(149,43,o),
(144,39,o),
(130,38,cs),
(117,38,o),
(76,38,o),
(41,40,c),
(58,3,o),
(76,-56,o),
(80,-93,c),
(153,-93,o),
(205,-89,o),
(243,-67,cs),
(281,-45,o),
(292,-10,o),
(292,57,cs),
(292,855,l)
);
},
{
closed = 1;
nodes = (
(505,474,l),
(505,337,l),
(858,337,l),
(858,474,l)
);
},
{
closed = 1;
nodes = (
(502,811,l),
(502,674,l),
(791,674,l),
(791,290,l),
(933,290,l),
(933,811,l)
);
},
{
closed = 1;
nodes = (
(417,811,l),
(417,129,ls),
(417,-33,o),
(461,-73,o),
(601,-73,cs),
(632,-73,o),
(761,-73,o),
(795,-73,cs),
(921,-73,o),
(961,-11,o),
(977,161,c),
(940,168,o),
(883,193,o),
(850,215,c),
(841,87,o),
(832,61,o),
(781,61,cs),
(758,61,o),
(642,61,o),
(617,61,cs),
(563,61,o),
(557,68,o),
(557,128,cs),
(557,811,l)
);
},
{
closed = 1;
nodes = (
(610,761,l),
(610,405,l),
(735,405,l),
(735,761,l)
);
}
);
vertWidth = 1000;
width = 1000;
}
);
note = cid18727;
unicode = 25226;
}
{
glyphname = uni64AD;
layers = (
{
layerId = m01;
shapes = (
{
closed = 1;
nodes = (
(46,266,l),
(128,298,o),
(236,343,o),
(341,386,c),
(335,416,l),
(223,371,o),
(109,325,o),
(35,296,c)
);
},
{
closed = 1;
nodes = (
(47,617,l),
(47,587,l),
(348,587,l),
(348,617,l)
);
},
{
closed = 1;
nodes = (
(192,830,l),
(192,-23,ls),
(192,-38,o),
(186,-42,o),
(174,-42,cs),
(162,-43,o),
(120,-43,o),
(69,-42,c),
(74,-51,o),
(79,-64,o),
(81,-70,c),
(143,-71,o),
(177,-70,o),
(194,-65,cs),
(213,-60,o),
(222,-50,o),
(222,-23,cs),
(222,830,l)
);
},
{
closed = 1;
nodes = (
(868,824,l),
(759,795,o),
(539,774,o),
(366,765,c),
(370,757,o),
(375,746,o),
(376,738,c),
(552,747,o),
(770,768,o),
(893,801,c)
);
},
{
closed = 1;
nodes = (
(347,559,l),
(347,529,l),
(943,529,l),
(943,559,l)
);
},
{
closed = 1;
nodes = (
(626,778,l),
(626,324,l),
(656,324,l),
(656,778,l)
);
},
{
closed = 1;
nodes = (
(626,290,l),
(626,-6,l),
(656,-6,l),
(656,290,l)
);
},
{
closed = 1;
nodes = (
(436,702,l),
(465,662,o),
(495,608,o),
(508,573,c),
(534,587,l),
(522,621,o),
(491,673,o),
(462,713,c)
);
},
{
closed = 1;
nodes = (
(825,730,l),
(806,686,o),
(769,619,o),
(740,578,c),
(763,566,l),
(791,605,o),
(826,666,o),
(853,716,c)
);
},
{
closed = 1;
nodes = (
(599,547,l),
(535,448,o),
(411,348,o),
(304,303,c),
(312,297,o),
(322,286,o),
(327,278,c),
(432,328,o),
(560,430,o),
(626,534,c)
);
},
{
closed = 1;
nodes = (
(658,534,l),
(721,442,o),
(842,345,o),
(939,299,c),
(945,307,o),
(955,318,o),
(962,324,c),
(864,366,o),
(745,457,o),
(684,547,c)
);
},
{
closed = 1;
nodes = (
(417,298,l),
(417,-70,l),
(446,-70,l),
(446,269,l),
(842,269,l),
(842,-64,l),
(871,-64,l),
(871,298,l)
);
},
{
closed = 1;
nodes = (
(432,156,l),
(432,127,l),
(857,127,l),
(857,156,l)
);
},
{
closed = 1;
nodes = (
(432,10,l),
(432,-19,l),
(857,-19,l),
(857,10,l)
);
}
);
vertWidth = 1000;
width = 1000;
},
{
layerId = "94DDBC6A-1627-4027-9125-871D02041BCD";
shapes = (
{
closed = 1;
nodes = (
(40,202,l),
(132,232,o),
(244,268,o),
(346,304,c),
(323,432,l),
(213,397,o),
(95,361,o),
(16,342,c)
);
},
{
closed = 1;
nodes = (
(34,672,l),
(34,539,l),
(341,539,l),
(341,672,l)
);
},
{
closed = 1;
nodes = (
(128,854,l),
(128,54,ls),
(128,41,o),
(124,38,o),
(112,38,cs),
(100,37,o),
(67,37,o),
(35,39,c),
(52,0,o),
(68,-60,o),
(71,-96,c),
(137,-96,o),
(183,-91,o),
(217,-68,cs),
(251,-46,o),
(261,-9,o),
(261,54,cs),
(261,854,l)
);
},
{
closed = 1;
nodes = (
(862,856,l),
(731,831,o),
(531,813,o),
(354,806,c),
(366,778,o),
(381,732,o),
(384,702,c),
(564,706,o),
(776,721,o),
(935,751,c)
);
},
{
closed = 1;
nodes = (
(347,599,l),
(347,483,l),
(964,483,l),
(964,599,l)
);
},
{
closed = 1;
nodes = (
(579,775,l),
(579,325,l),
(709,325,l),
(709,775,l)
);
},
{
closed = 1;
nodes = (
(581,261,l),
(581,-27,l),
(700,-27,l),
(700,261,l)
);
},
{
closed = 1;
nodes = (
(405,689,l),
(420,654,o),
(435,606,o),
(441,576,c),
(560,615,l),
(553,643,o),
(534,689,o),
(518,722,c)
);
},
{
closed = 1;
nodes = (
(784,739,l),
(771,702,o),
(747,650,o),
(728,616,c),
(828,581,l),
(851,610,o),
(880,654,o),
(910,699,c)
);
},
{
closed = 1;
nodes = (
(508,542,l),
(466,465,o),
(382,393,o),
(288,356,c),
(317,331,o),
(357,283,o),
(376,252,c),
(481,303,o),
(568,398,o),
(620,506,c)
);
},
{
closed = 1;
nodes = (
(668,502,l),
(722,405,o),
(809,309,o),
(901,257,c),
(921,289,o),
(962,336,o),
(991,360,c),
(906,399,o),
(820,471,o),
(776,542,c)
);
},
{
closed = 1;
nodes = (
(391,316,l),
(391,-94,l),
(518,-94,l),
(518,211,l),
(772,211,l),
(772,-90,l),
(905,-90,l),
(905,316,l)
);
},
{
closed = 1;
nodes = (
(475,173,l),
(475,75,l),
(809,75,l),
(809,173,l)
);
},
{
closed = 1;
nodes = (
(475,35,l),
(475,-65,l),
(809,-65,l),
(809,35,l)
);
}
);
vertWidth = 1000;
width = 1000;
}
);
note = cid19629;
unicode = 25773;
}
{
glyphname = uni6709;
layers = (
{
layerId = m01;
shapes = (
{
closed = 1;
nodes = (
(72,692,l),
(72,663,l),
(932,663,l),
(932,692,l)
);
},
{
closed = 1;
nodes = (
(291,338,l),
(291,309,l),
(795,309,l),
(795,338,l)
);
},
{
closed = 1;
nodes = (
(274,510,l),
(274,-70,l),
(303,-70,l),
(303,480,l),
(789,480,l),
(789,510,l)
);
},
{
closed = 1;
nodes = (
(779,510,l),
(779,-18,ls),
(779,-34,o),
(774,-40,o),
(756,-41,cs),
(736,-42,o),
(673,-43,o),
(592,-40,c),
(597,-50,o),
(603,-62,o),
(605,-70,c),
(696,-70,o),
(750,-71,o),
(775,-66,cs),
(801,-60,o),
(809,-47,o),
(809,-18,cs),
(809,510,l)
);
},
{
closed = 1;
nodes = (
(417,830,l),
(358,623,o),
(235,414,o),
(55,285,c),
(60,279,o),
(69,269,o),
(72,262,c),
(258,395,o),
(379,609,o),
(445,822,c)
);
},
{
closed = 1;
nodes = (
(291,165,l),
(291,135,l),
(795,135,l),
(795,165,l)
);
}
);
vertWidth = 1000;
width = 1000;
},
{
layerId = "94DDBC6A-1627-4027-9125-871D02041BCD";
shapes = (
{
closed = 1;
nodes = (
(50,739,l),
(50,603,l),
(951,603,l),
(951,739,l)
);
},
{
closed = 1;
nodes = (
(334,377,l),
(334,257,l),
(749,257,l),
(749,377,l)
);
},
{
closed = 1;
nodes = (
(248,545,l),
(248,-95,l),
(392,-95,l),
(392,419,l),
(751,419,l),
(751,545,l)
);
},
{
closed = 1;
nodes = (
(684,545,l),
(684,58,ls),
(684,45,o),
(678,40,o),
(662,40,cs),
(646,40,o),
(588,40,o),
(545,43,c),
(564,5,o),
(583,-57,o),
(588,-97,c),
(667,-97,o),
(725,-95,o),
(769,-73,cs),
(814,-51,o),
(826,-12,o),
(826,55,cs),
(826,545,l)
);
},
{
closed = 1;
nodes = (
(350,856,l),
(299,640,o),
(171,437,o),
(18,329,c),
(50,300,o),
(96,250,o),
(122,214,c),
(294,341,o),
(441,573,o),
(504,816,c)
);
},
{
closed = 1;
nodes = (
(334,214,l),
(334,94,l),
(749,94,l),
(749,214,l)
);
}
);
vertWidth = 1000;
width = 1000;
}
);
note = cid20695;
unicode = 26377;
}
{
glyphname = uni6C5F;
layers = (
{
layerId = m01;
shapes = (
{
closed = 1;
nodes = (
(98,798,l),
(168,769,o),
(248,722,o),
(289,685,c),
(307,712,l),
(266,747,o),
(184,793,o),
(115,820,c)
);
},
{
closed = 1;
nodes = (
(49,524,l),
(120,501,o),
(204,461,o),
(248,429,c),
(263,457,l),
(220,488,o),
(134,526,o),
(65,548,c)
);
},
{
closed = 1;
nodes = (
(106,-56,l),
(164,33,o),
(240,169,o),
(293,275,c),
(272,294,l),
(216,182,o),
(135,43,o),
(81,-35,c)
);
},
{
closed = 1;
nodes = (
(346,726,l),
(346,697,l),
(910,697,l),
(910,726,l)
);
},
{
closed = 1;
nodes = (
(267,16,l),
(267,-14,l),
(951,-14,l),
(951,16,l)
);
},
{
closed = 1;
nodes = (
(593,718,l),
(593,-2,l),
(623,-2,l),
(623,718,l)
);
}
);
vertWidth = 1000;
width = 1000;
},
{
layerId = "94DDBC6A-1627-4027-9125-871D02041BCD";
shapes = (
{
closed = 1;
nodes = (
(93,745,l),
(157,717,o),
(240,669,o),
(278,633,c),
(363,751,l),
(321,787,o),
(235,829,o),
(172,852,c)
);
},
{
closed = 1;
nodes = (
(21,473,l),
(86,446,o),
(171,400,o),
(210,365,c),
(291,486,l),
(247,520,o),
(160,561,o),
(96,583,c)
);
},
{
closed = 1;
nodes = (
(190,-84,l),
(251,16,o),
(311,124,o),
(364,229,c),
(257,326,l),
(196,209,o),
(120,88,o),
(67,14,c)
);
},
{
closed = 1;
nodes = (
(384,777,l),
(384,631,l),
(944,631,l),
(944,777,l)
);
},
{
closed = 1;
nodes = (
(333,108,l),
(333,-38,l),
(975,-38,l),
(975,108,l)
);
},
{
closed = 1;
nodes = (
(576,727,l),
(576,25,l),
(731,25,l),
(731,727,l)
);
}
);
vertWidth = 1000;
width = 1000;
}
);
note = cid23073;
unicode = 27743;
}
{
glyphname = uni6C68;
layers = (
{
layerId = m01;
shapes = (
{
closed = 1;
nodes = (
(406,35,l),
(406,5,l),
(887,5,l),
(887,35,l)
);
},
{
closed = 1;
nodes = (
(406,398,l),
(406,368,l),
(887,368,l),
(887,398,l)
);
},
{
closed = 1;
nodes = (
(391,755,l),
(391,-63,l),
(421,-63,l),
(421,726,l),
(871,726,l),
(871,-55,l),
(901,-55,l),
(901,755,l)
);
},
{
closed = 1;
nodes = (
(98,798,l),
(168,769,o),
(248,722,o),
(289,685,c),
(307,712,l),
(266,747,o),
(184,793,o),
(115,820,c)
);
},
{
closed = 1;
nodes = (
(49,524,l),
(120,501,o),
(204,461,o),
(248,429,c),
(263,457,l),
(220,488,o),
(134,526,o),
(65,548,c)
);
},
{
closed = 1;
nodes = (
(106,-56,l),
(164,33,o),
(240,169,o),
(293,275,c),
(272,294,l),
(216,182,o),
(135,43,o),
(81,-35,c)
);
}
);
vertWidth = 1000;
width = 1000;
},
{
layerId = "94DDBC6A-1627-4027-9125-871D02041BCD";
shapes = (
{
closed = 1;
nodes = (
(463,110,l),
(463,-27,l),
(852,-27,l),
(852,110,l)
);
},
{
closed = 1;
nodes = (
(474,456,l),
(474,321,l),
(849,321,l),
(849,456,l)
);
},
{
closed = 1;
nodes = (
(383,798,l),
(383,-95,l),
(523,-95,l),
(523,661,l),
(792,661,l),
(792,-86,l),
(939,-86,l),
(939,798,l)
);
},
{
closed = 1;
nodes = (
(93,745,l),
(157,717,o),
(240,669,o),
(278,633,c),
(363,751,l),
(321,787,o),
(235,829,o),
(172,852,c)
);
},
{
closed = 1;
nodes = (
(21,473,l),
(86,446,o),
(171,400,o),
(210,365,c),
(291,486,l),
(247,520,o),
(160,561,o),
(96,583,c)
);
},
{
closed = 1;
nodes = (
(190,-84,l),
(251,16,o),
(311,124,o),
(364,229,c),
(257,326,l),
(196,209,o),
(120,88,o),
(67,14,c)
);
}
);
vertWidth = 1000;
width = 1000;
}
);
note = cid23084;
unicode = 27752;
}
{
glyphname = uni6C9B;
layers = (
{
layerId = m01;
shapes = (
{
closed = 1;
nodes = (
(298,672,l),
(298,643,l),
(950,643,l),
(950,672,l)
);
},
{
closed = 1;
nodes = (
(361,488,l),
(361,59,l),
(390,59,l),
(390,459,l),
(872,459,l),
(872,488,l)
);
},
{
closed = 1;
nodes = (
(858,488,l),
(858,111,ls),
(858,99,o),
(855,96,o),
(841,95,cs),
(827,94,o),
(784,94,o),
(727,95,c),
(732,86,o),
(738,75,o),
(740,67,c),
(805,67,o),
(843,67,o),
(863,73,cs),
(882,79,o),
(887,89,o),
(887,112,cs),
(887,488,l)
);
},
{
closed = 1;
nodes = (
(605,830,l),
(605,657,l),
(634,657,l),
(634,830,l)
);
},
{
closed = 1;
nodes = (
(96,798,l),
(161,767,o),
(236,717,o),
(275,679,c),
(292,704,l),
(255,740,o),
(179,788,o),
(114,818,c)
);
},
{
closed = 1;
nodes = (
(48,527,l),
(114,499,o),
(191,453,o),
(231,419,c),
(248,444,l),
(209,477,o),
(131,523,o),
(65,549,c)
);
},
{
closed = 1;
nodes = (
(103,-55,l),
(157,33,o),
(229,170,o),
(278,276,c),
(256,294,l),
(203,182,o),
(129,44,o),
(78,-35,c)
);
},
{
closed = 1;
nodes = (
(605,618,l),
(605,-70,l),
(634,-70,l),
(634,618,l)
);
}
);
vertWidth = 1000;
width = 1000;
},
{
layerId = "94DDBC6A-1627-4027-9125-871D02041BCD";
shapes = (
{
closed = 1;
nodes = (
(322,722,l),
(322,582,l),
(975,582,l),
(975,722,l)
);
},
{
closed = 1;
nodes = (
(357,507,l),
(357,36,l),
(500,36,l),
(500,367,l),
(859,367,l),
(859,507,l)
);
},
{
closed = 1;
nodes = (
(797,507,l),
(797,188,ls),
(797,178,o),
(794,175,o),
(784,175,cs),
(774,175,o),
(743,175,o),
(720,176,c),
(737,137,o),
(753,77,o),
(757,35,c),
(814,35,o),
(859,37,o),
(896,60,cs),
(935,83,o),
(943,122,o),
(943,184,cs),
(943,507,l)
);
},
{
closed = 1;
nodes = (
(569,855,l),
(569,652,l),
(719,652,l),
(719,855,l)
);
},
{
closed = 1;
nodes = (
(83,745,l),
(145,718,o),
(225,673,o),
(261,638,c),
(345,757,l),
(304,790,o),
(222,830,o),
(161,852,c)
);
},
{
closed = 1;
nodes = (
(22,472,l),
(85,446,o),
(166,402,o),
(203,368,c),
(287,489,l),
(245,522,o),
(161,561,o),
(100,582,c)
);
},
{
closed = 1;
nodes = (
(178,-82,l),
(235,19,o),
(291,129,o),
(341,236,c),
(230,327,l),
(173,208,o),
(101,85,o),
(51,9,c)
);
},
{
closed = 1;
nodes = (
(573,568,l),
(573,-95,l),
(715,-95,l),
(715,568,l)
);
}
);
vertWidth = 1000;
width = 1000;
}
);
note = cid23165;
unicode = 27803;
}
{
glyphname = uni706F;
layers = (
{
layerId = m01;
shapes = (
{
closed = 1;
nodes = (
(438,748,l),
(438,719,l),
(951,719,l),
(951,748,l)
);
},
{
closed = 1;
nodes = (
(717,738,l),
(717,-12,ls),
(717,-31,o),
(711,-37,o),
(691,-38,cs),
(669,-40,o),
(599,-40,o),
(524,-38,c),
(529,-46,o),
(535,-60,o),
(537,-70,c),
(623,-70,o),
(682,-70,o),
(710,-65,cs),
(737,-59,o),
(747,-45,o),
(747,-11,cs),
(747,738,l)
);
},
{
closed = 1;
nodes = (
(237,817,l),
(237,489,ls),
(237,297,o),
(219,106,o),
(45,-44,c),
(52,-49,o),
(63,-58,o),
(67,-64,c),
(246,91,o),
(267,287,o),
(267,489,cs),
(267,817,l)
);
},
{
closed = 1;
nodes = (
(403,654,l),
(380,593,o),
(334,501,o),
(299,448,c),
(323,435,l),
(357,488,o),
(400,573,o),
(432,640,c)
);
},
{
closed = 1;
nodes = (
(226,254,l),
(264,216,o),
(378,89,o),
(411,46,c),
(433,70,l),
(404,103,o),
(280,239,o),
(246,270,c)
);
},
{
closed = 1;
nodes = (
(133,634,l),
(124,541,o),
(97,448,o),
(46,398,c),
(69,380,l),
(124,436,o),
(149,535,o),
(159,629,c)
);
}
);
vertWidth = 1000;
width = 1000;
},
{
layerId = "94DDBC6A-1627-4027-9125-871D02041BCD";
shapes = (
{
closed = 1;
nodes = (
(453,790,l),
(453,648,l),
(976,648,l),
(976,790,l)
);
},
{
closed = 1;
nodes = (
(675,725,l),
(675,84,ls),
(675,66,o),
(667,60,o),
(647,60,cs),
(626,60,o),
(550,59,o),
(494,64,c),
(517,23,o),
(545,-49,o),
(552,-93,c),
(645,-93,o),
(713,-90,o),
(764,-65,cs),
(814,-40,o),
(831,3,o),
(831,81,cs),
(831,725,l)
);
},
{
closed = 1;
nodes = (
(172,840,l),
(172,507,ls),
(172,335,o),
(156,145,o),
(19,10,c),
(50,-12,o),
(98,-63,o),
(119,-95,c),
(287,67,o),
(306,297,o),
(306,506,cs),
(306,840,l)
);
},
{
closed = 1;
nodes = (
(347,681,l),
(331,616,o),
(299,527,o),
(272,469,c),
(362,426,l),
(394,477,o),
(433,558,o),
(474,630,c)
);
},
{
closed = 1;
nodes = (
(186,264,l),
(237,201,o),
(321,89,o),
(367,10,c),
(475,122,l),
(446,157,o),
(325,304,o),
(284,340,c)
);
},
{
closed = 1;
nodes = (
(56,640,l),
(58,554,o),
(46,448,o),
(19,389,c),
(120,347,l),
(152,420,o),
(163,532,o),
(158,627,c)
);
}
);
vertWidth = 1000;
width = 1000;
}
);
note = cid24841;
unicode = 28783;
}
{
glyphname = uni7247;
layers = (
{
layerId = m01;
shapes = (
{
closed = 1;
nodes = (
(214,562,l),
(214,532,l),
(920,532,l),
(920,562,l)
);
},
{
closed = 1;
nodes = (
(551,829,l),
(551,542,l),
(580,542,l),
(580,829,l)
);
},
{
closed = 1;
nodes = (
(198,800,l),
(198,471,ls),
(198,285,o),
(184,100,o),
(53,-50,c),
(61,-54,o),
(71,-63,o),
(76,-68,c),
(212,86,o),
(228,277,o),
(228,472,cs),
(228,800,l)
);
},
{
closed = 1;
nodes = (
(211,340,l),
(211,311,l),
(658,311,l),
(658,-71,l),
(688,-71,l),
(688,340,l)
);
}
);
vertWidth = 1000;
width = 1000;
},
{
layerId = "94DDBC6A-1627-4027-9125-871D02041BCD";
shapes = (
{
closed = 1;
nodes = (
(227,621,l),
(227,470,l),
(950,470,l),
(950,621,l)
);
},
{
closed = 1;
nodes = (
(518,854,l),
(518,552,l),
(676,552,l),
(676,854,l)
);
},
{
closed = 1;
nodes = (
(151,836,l),
(151,496,ls),
(151,333,o),
(137,148,o),
(15,18,c),
(50,-8,o),
(105,-66,o),
(129,-103,c),
(286,60,o),
(304,289,o),
(304,495,cs),
(304,836,l)
);
},
{
closed = 1;
nodes = (
(224,361,l),
(224,208,l),
(594,208,l),
(594,-95,l),
(755,-95,l),
(755,361,l)
);
}
);
vertWidth = 1000;
width = 1000;
}
);
note = cid25780;
unicode = 29255;
}
{
glyphname = uni7269;
layers = (
{
layerId = m01;
shapes = (
{
closed = 1;
nodes = (
(527,830,l),
(498,674,o),
(435,526,o),
(364,447,c),
(372,444,o),
(384,436,o),
(390,430,c),
(461,511,o),
(525,663,o),
(556,824,c)
);
},
{
closed = 1;
nodes = (
(906,631,l),
(906,622,l),
(890,189,o),
(868,15,o),
(830,-26,cs),
(819,-38,o),
(808,-40,o),
(790,-40,cs),
(771,-40,o),
(724,-39,o),
(671,-35,c),
(676,-43,o),
(680,-57,o),
(680,-66,c),
(724,-70,o),
(769,-71,o),
(794,-70,cs),
(822,-69,o),
(838,-64,o),
(856,-43,cs),
(898,5,o),
(919,165,o),
(935,608,c),
(935,614,o),
(935,631,o),
(935,631,c)
);
},
{
closed = 1;
nodes = (
(488,631,l),
(479,601,l),
(915,601,l),
(915,631,l)
);
},
{
closed = 1;
nodes = (
(612,620,l),
(567,359,o),
(478,155,o),
(364,52,c),
(374,48,o),
(386,40,o),
(392,34,c),
(507,141,o),
(596,348,o),
(641,611,c)
);
},
{
closed = 1;
nodes = (
(759,620,l),
(722,300,o),
(633,59,o),
(511,-51,c),
(520,-55,o),
(532,-64,o),
(538,-70,c),
(661,46,o),
(751,290,o),
(789,612,c)
);
},
{
closed = 1;
nodes = (
(55,236,l),
(152,268,o),
(285,311,o),
(412,353,c),
(408,379,l),
(274,336,o),
(135,292,o),
(44,266,c)
);
},
{
closed = 1;
nodes = (
(238,829,l),
(238,-70,l),
(268,-70,l),
(268,829,l)
);
},
{
closed = 1;
nodes = (
(122,775,l),
(107,648,o),
(84,519,o),
(41,430,c),
(49,427,o),
(64,421,o),
(70,417,c),
(109,506,o),
(135,637,o),
(152,770,c)
);
},
{
closed = 1;
nodes = (
(108,614,l),
(106,584,l),
(391,584,l),
(391,614,l)
);
}
);
vertWidth = 1000;
width = 1000;
},
{
layerId = "94DDBC6A-1627-4027-9125-871D02041BCD";
shapes = (
{
closed = 1;
nodes = (
(476,855,l),
(460,710,o),
(410,566,o),
(347,480,c),
(377,462,o),
(433,421,o),
(456,399,c),
(523,489,o),
(582,655,o),
(607,830,c)
);
},
{
closed = 1;
nodes = (
(837,676,l),
(837,645,l),
(823,220,o),
(807,97,o),
(782,64,cs),
(770,49,o),
(761,44,o),
(747,44,cs),
(728,44,o),
(698,44,o),
(665,48,c),
(687,8,o),
(702,-53,o),
(705,-94,c),
(749,-95,o),
(790,-95,o),
(819,-88,cs),
(854,-80,o),
(877,-67,o),
(902,-29,cs),
(939,22,o),
(957,178,o),
(972,613,cs),
(973,630,o),
(974,676,o),
(974,676,c)
);
},
{
closed = 1;
nodes = (
(527,676,l),
(470,542,l),
(900,542,l),
(900,676,l)
);
},
{
closed = 1;
nodes = (
(572,622,l),
(529,382,o),
(449,203,o),
(349,122,c),
(386,105,o),
(436,72,o),
(464,47,c),
(560,137,o),
(640,332,o),
(687,591,c)
);
},
{
closed = 1;
nodes = (
(707,606,l),
(665,301,o),
(575,77,o),
(456,-20,c),
(496,-39,o),
(549,-73,o),
(577,-98,c),
(690,9,o),
(778,251,o),
(824,577,c)
);
},
{
closed = 1;
nodes = (
(56,179,l),
(164,210,o),
(302,250,o),
(428,289,c),
(409,417,l),
(270,379,o),
(121,339,o),
(22,318,c)
);
},
{
closed = 1;
nodes = (
(197,855,l),
(197,-95,l),
(330,-95,l),
(330,855,l)
);
},
{
closed = 1;
nodes = (
(61,804,l),
(54,688,o),
(39,564,o),
(10,486,c),
(38,471,o),
(89,438,o),
(111,420,c),
(146,510,o),
(169,652,o),
(181,784,c)
);
},
{
closed = 1;
nodes = (
(100,674,l),
(72,536,l),
(402,536,l),
(402,674,l)
);
}
);
vertWidth = 1000;
width = 1000;
}
);
note = cid25851;
unicode = 29289;
}
{
glyphname = uni72D9;
layers = (
{
layerId = m01;
shapes = (
{
closed = 1;
nodes = (
(321,-11,l),
(321,-40,l),
(950,-40,l),
(950,-11,l)
);
},
{
closed = 1;
nodes = (
(458,523,l),
(458,494,l),
(840,494,l),
(840,523,l)
);
},
{
closed = 1;
nodes = (
(458,260,l),
(458,230,l),
(840,230,l),
(840,260,l)
);
},
{
closed = 1;
nodes = (
(445,780,l),
(445,-25,l),
(474,-25,l),
(474,751,l),
(824,751,l),
(824,-25,l),
(854,-25,l),
(854,780,l)
);
},
{
closed = 1;
nodes = (
(72,800,l),
(256,643,o),
(278,473,o),
(278,294,cs),
(278,151,o),
(267,20,o),
(235,-20,c),
(227,-32,o),
(216,-37,o),
(200,-39,cs),
(174,-42,o),
(128,-42,o),
(78,-38,c),
(84,-47,o),
(89,-60,o),
(90,-69,c),
(130,-71,o),
(172,-71,o),
(204,-67,cs),
(230,-65,o),
(246,-57,o),
(258,-40,cs),
(296,11,o),
(307,139,o),
(307,294,cs),
(307,479,o),
(284,657,o),
(92,817,c)
);
},
{
closed = 1;
nodes = (
(271,475,l),
(223,373,o),
(126,259,o),
(40,204,c),
(48,197,o),
(57,186,o),
(61,179,c),
(148,241,o),
(244,357,o),
(294,462,c)
);
},
{
closed = 1;
nodes = (
(325,829,l),
(268,731,o),
(158,617,o),
(47,536,c),
(54,531,o),
(63,523,o),
(68,519,c),
(180,603,o),
(287,711,o),
(350,815,c)
);
}
);
vertWidth = 1000;
width = 1000;
},
{
layerId = "94DDBC6A-1627-4027-9125-871D02041BCD";
shapes = (
{
closed = 1;
nodes = (
(343,68,l),
(343,-66,l),
(974,-66,l),
(974,68,l)
);
},
{
closed = 1;
nodes = (
(510,562,l),
(510,432,l),
(821,432,l),
(821,562,l)
);
},
{
closed = 1;
nodes = (
(510,316,l),
(510,186,l),
(821,186,l),
(821,316,l)
);
},
{
closed = 1;
nodes = (
(437,808,l),
(437,-10,l),
(577,-10,l),
(577,674,l),
(744,674,l),
(744,-10,l),
(891,-10,l),
(891,808,l)
);
},
{
closed = 1;
nodes = (
(22,777,l),
(186,644,o),
(216,498,o),
(216,308,cs),
(216,188,o),
(208,89,o),
(188,63,cs),
(180,52,o),
(171,46,o),
(156,44,cs),
(135,42,o),
(100,41,o),
(48,45,c),
(73,4,o),
(86,-47,o),
(86,-94,c),
(138,-96,o),
(183,-95,o),
(225,-83,cs),
(251,-76,o),
(275,-61,o),
(293,-38,cs),
(342,29,o),
(353,167,o),
(353,305,cs),
(353,506,o),
(326,693,o),
(123,855,c)
);
},
{
closed = 1;
nodes = (
(228,488,l),
(184,402,o),
(93,302,o),
(13,252,c),
(47,226,o),
(87,179,o),
(110,145,c),
(191,212,o),
(285,328,o),
(335,424,c)
);
},
{
closed = 1;
nodes = (
(262,845,l),
(206,734,o),
(112,615,o),
(12,546,c),
(43,523,o),
(90,479,o),
(112,450,c),
(216,529,o),
(318,651,o),
(391,781,c)
);
}
);
vertWidth = 1000;
width = 1000;
}
);
note = cid26020;
unicode = 29401;
}
{
glyphname = uni76AE;
layers = (
{
layerId = m01;
shapes = (
{
closed = 1;
nodes = (
(302,394,l),
(405,154,o),
(631,-13,o),
(933,-70,c),
(937,-63,o),
(945,-52,o),
(951,-45,c),
(652,8,o),
(429,169,o),
(328,404,c)
);
},
{
closed = 1;
nodes = (
(188,682,l),
(188,653,l),
(894,653,l),
(894,682,l)
);
},
{
closed = 1;
nodes = (
(188,433,l),
(188,404,l),
(811,404,l),
(811,433,l)
);
},
{
closed = 1;
nodes = (
(512,832,l),
(512,422,l),
(541,422,l),
(541,832,l)
);
},
{
closed = 1;
nodes = (
(175,682,l),
(175,435,ls),
(175,290,o),
(161,97,o),
(40,-46,c),
(47,-50,o),
(58,-60,o),
(62,-66,c),
(188,82,o),
(204,285,o),
(204,434,cs),
(204,682,l)
);
},
{
closed = 1;
nodes = (
(883,682,l),
(883,674,l),
(858,613,o),
(823,538,o),
(794,493,c),
(820,482,l),
(850,529,o),
(885,608,o),
(917,675,c),
(897,684,l),
(890,682,l)
);
},
{
closed = 1;
nodes = (
(803,433,l),
(803,426,l),
(705,153,o),
(448,17,o),
(168,-44,c),
(175,-51,o),
(183,-63,o),
(186,-70,c),
(470,-5,o),
(729,133,o),
(836,423,c),
(818,435,l),
(811,433,l)
);
}
);
vertWidth = 1000;
width = 1000;
},
{
layerId = "94DDBC6A-1627-4027-9125-871D02041BCD";
shapes = (
{
closed = 1;
nodes = (
(326,302,l),
(411,95,o),
(610,-48,o),
(881,-96,c),
(901,-54,o),
(943,10,o),
(975,43,c),
(711,81,o),
(527,188,o),
(462,340,c)
);
},
{
closed = 1;
nodes = (
(201,737,l),
(201,597,l),
(823,597,l),
(823,737,l)
);
},
{
closed = 1;
nodes = (
(222,469,l),
(222,334,l),
(776,334,l),
(776,469,l)
);
},
{
closed = 1;
nodes = (
(454,856,l),
(454,415,l),
(605,415,l),
(605,856,l)
);
},
{
closed = 1;
nodes = (
(130,737,l),
(130,489,ls),
(130,345,o),
(119,142,o),
(13,3,c),
(45,-14,o),
(108,-64,o),
(133,-91,c),
(257,63,o),
(277,323,o),
(277,489,cs),
(277,737,l)
);
},
{
closed = 1;
nodes = (
(794,737,l),
(794,717,l),
(782,650,o),
(757,567,o),
(735,515,c),
(871,479,l),
(901,540,o),
(935,631,o),
(957,716,c),
(842,742,l),
(817,737,l)
);
},
{
closed = 1;
nodes = (
(741,469,l),
(741,443,l),
(690,235,o),
(499,94,o),
(219,43,c),
(247,13,o),
(288,-55,o),
(303,-93,c),
(605,-22,o),
(817,163,o),
(895,423,c),
(797,474,l),
(771,469,l)
);
}
);
vertWidth = 1000;
width = 1000;
}
);
note = cid27767;
unicode = 30382;
}
{
glyphname = uni79CB;
layers = (
{
layerId = m01;
shapes = (
{
closed = 1;
nodes = (
(253,759,l),
(253,-70,l),
(282,-70,l),
(282,759,l)
);
},
{
closed = 1;
nodes = (
(57,547,l),
(57,518,l),
(432,518,l),
(432,547,l)
);
},
{
closed = 1;
nodes = (
(253,539,l),
(212,401,o),
(122,236,o),
(47,156,c),
(54,151,o),
(63,140,o),
(68,133,c),
(144,219,o),
(233,391,o),
(277,530,c)
);
},
{
closed = 1;
nodes = (
(398,814,l),
(325,781,o),
(180,750,o),
(60,730,c),
(65,722,o),
(70,713,o),
(72,706,c),
(193,725,o),
(337,756,o),
(426,792,c)
);
},
{
closed = 1;
nodes = (
(260,423,l),
(290,394,o),
(388,283,o),
(414,247,c),
(433,270,l),
(411,298,o),
(305,411,o),
(277,437,c)
);
},
{
closed = 1;
nodes = (
(677,827,l),
(663,827,l),
(663,470,ls),
(663,402,o),
(633,91,o),
(391,-48,c),
(397,-54,o),
(406,-64,o),
(410,-70,c),
(615,49,o),
(667,278,o),
(677,363,c),
(688,279,o),
(735,49,o),
(937,-70,c),
(941,-64,o),
(951,-52,o),
(956,-46,c),
(720,90,o),
(692,402,o),
(692,470,cs),
(692,827,l)
);
},
{
closed = 1;
nodes = (
(516,610,l),
(510,507,o),
(475,406,o),
(425,347,c),
(451,330,l),
(501,391,o),
(537,497,o),
(544,604,c)
);
},
{
closed = 1;
nodes = (
(901,613,l),
(870,524,o),
(826,423,o),
(787,351,c),
(812,340,l),
(852,413,o),
(898,514,o),
(931,601,c)
);
}
);
vertWidth = 1000;
width = 1000;
},
{
layerId = "94DDBC6A-1627-4027-9125-871D02041BCD";
shapes = (
{
closed = 1;
nodes = (
(193,756,l),
(193,-95,l),
(334,-95,l),
(334,756,l)
);
},
{
closed = 1;
nodes = (
(36,573,l),
(36,440,l),
(442,440,l),
(442,573,l)
);
},
{
closed = 1;
nodes = (
(196,516,l),
(164,412,o),
(94,273,o),
(20,193,c),
(43,155,o),
(76,92,o),
(89,49,c),
(171,151,o),
(241,331,o),
(282,477,c)
);
},
{
closed = 1;
nodes = (
(367,850,l),
(280,814,o),
(150,784,o),
(30,766,c),
(45,736,o),
(64,686,o),
(69,654,c),
(196,668,o),
(343,694,o),
(459,736,c)
);
},
{
closed = 1;
nodes = (
(264,355,l),
(299,307,o),
(360,211,o),
(387,155,c),
(466,274,l),
(446,297,o),
(351,394,o),
(324,416,c)
);
},
{
closed = 1;
nodes = (
(680,850,l),
(611,850,l),
(611,463,ls),
(611,342,o),
(553,151,o),
(378,37,c),
(409,0,o),
(446,-58,o),
(463,-95,c),
(592,-16,o),
(663,140,o),
(680,227,c),
(698,144,o),
(768,-15,o),
(895,-95,c),
(918,-53,o),
(958,8,o),
(986,42,c),
(810,157,o),
(753,342,o),
(753,463,cs),
(753,850,l)
);
},
{
closed = 1;
nodes = (
(474,637,l),
(474,529,o),
(450,429,o),
(412,379,c),
(526,313,l),
(566,373,o),
(593,488,o),
(596,612,c)
);
},
{
closed = 1;
nodes = (
(820,636,l),
(802,544,o),
(772,442,o),
(741,371,c),
(853,330,l),
(886,397,o),
(930,497,o),
(966,590,c)
);
}
);
vertWidth = 1000;
width = 1000;
}
);
note = cid29092;
unicode = 31179;
}
{
glyphname = uni800C;
layers = (
{
layerId = m01;
shapes = (
{
closed = 1;
nodes = (
(356,533,l),
(356,-65,l),
(385,-65,l),
(385,533,l)
);
},
{
closed = 1;
nodes = (
(605,533,l),
(605,-65,l),
(634,-65,l),
(634,533,l)
);
},
{
closed = 1;
nodes = (
(479,748,l),
(469,689,o),
(447,596,o),
(429,541,c),
(458,535,l),
(476,589,o),
(496,674,o),
(513,741,c)
);
},
{
closed = 1;
nodes = (
(117,550,l),
(117,-71,l),
(146,-71,l),
(146,521,l),
(868,521,l),
(868,550,l)
);
},
{
closed = 1;
nodes = (
(855,550,l),
(855,-17,ls),
(855,-32,o),
(851,-36,o),
(834,-37,cs),
(817,-38,o),
(761,-39,o),
(689,-37,c),
(695,-47,o),
(700,-61,o),
(702,-70,c),
(778,-70,o),
(829,-70,o),
(854,-64,cs),
(877,-58,o),
(884,-45,o),
(884,-16,cs),
(884,550,l)
);
},
{
closed = 1;
nodes = (
(61,763,l),
(61,733,l),
(944,733,l),
(944,763,l)
);
}
);
vertWidth = 1000;
width = 1000;
},
{
layerId = "94DDBC6A-1627-4027-9125-871D02041BCD";
shapes = (
{
closed = 1;
nodes = (
(314,518,l),
(314,-85,l),
(459,-85,l),
(459,518,l)
);
},
{
closed = 1;
nodes = (
(539,518,l),
(539,-85,l),
(684,-85,l),
(684,518,l)
);
},
{
closed = 1;
nodes = (
(405,752,l),
(402,669,o),
(390,576,o),
(374,512,c),
(519,496,l),
(543,561,o),
(569,656,o),
(587,743,c)
);
},
{
closed = 1;
nodes = (
(86,585,l),
(86,-95,l),
(236,-95,l),
(236,450,l),
(840,450,l),
(840,585,l)
);
},
{
closed = 1;
nodes = (
(774,585,l),
(774,51,ls),
(774,38,o),
(769,34,o),
(756,34,cs),
(744,34,o),
(702,33,o),
(671,35,c),
(689,1,o),
(710,-57,o),
(716,-95,c),
(781,-95,o),
(831,-92,o),
(871,-71,cs),
(911,-49,o),
(922,-14,o),
(922,49,cs),
(922,585,l)
);
},
{
closed = 1;
nodes = (
(42,817,l),
(42,669,l),
(961,669,l),
(961,817,l)
);
}
);
vertWidth = 1000;
width = 1000;
}
);
note = cid32289;
unicode = 32780;
}
{
glyphname = uni8010;
layers = (
{
layerId = m01;
shapes = (
{
closed = 1;
nodes = (
(58,772,l),
(58,742,l),
(557,742,l),
(557,772,l)
);
},
{
closed = 1;
nodes = (
(93,554,l),
(93,-70,l),
(123,-70,l),
(123,524,l),
(504,524,l),
(504,554,l)
);
},
{
closed = 1;
nodes = (
(490,554,l),
(490,-31,ls),
(490,-40,o),
(487,-42,o),
(479,-43,cs),
(471,-43,o),
(444,-43,o),
(412,-42,c),
(416,-51,o),
(422,-63,o),
(424,-70,c),
(463,-70,o),
(486,-70,o),
(501,-65,cs),
(515,-60,o),
(520,-50,o),
(520,-30,cs),
(520,554,l)
);
},
{
closed = 1;
nodes = (
(226,544,l),
(226,-55,l),
(255,-55,l),
(255,544,l)
);
},
{
closed = 1;
nodes = (
(358,544,l),
(358,-55,l),
(387,-55,l),
(387,544,l)
);
},
{
closed = 1;
nodes = (
(309,760,l),
(298,696,o),
(272,598,o),
(251,541,c),
(279,533,l),
(299,590,o),
(323,681,o),
(342,751,c)
);
},
{
closed = 1;
nodes = (
(549,568,l),
(549,539,l),
(950,539,l),
(950,568,l)
);
},
{
closed = 1;
nodes = (
(805,825,l),
(805,-19,ls),
(805,-37,o),
(798,-42,o),
(780,-43,cs),
(765,-44,o),
(708,-45,o),
(639,-43,c),
(644,-52,o),
(649,-65,o),
(652,-71,c),
(736,-72,o),
(778,-72,o),
(801,-66,cs),
(822,-61,o),
(834,-50,o),
(834,-18,cs),
(834,825,l)
);
},
{
closed = 1;
nodes = (
(589,404,l),
(635,330,o),
(679,232,o),
(693,171,c),
(722,182,l),
(709,243,o),
(664,340,o),
(617,414,c)
);
}
);
vertWidth = 1000;
width = 1000;
},
{
layerId = "94DDBC6A-1627-4027-9125-871D02041BCD";
shapes = (
{
closed = 1;
nodes = (
(29,814,l),
(29,675,l),
(590,675,l),
(590,814,l)
);
},
{
closed = 1;
nodes = (
(49,577,l),
(49,-95,l),
(165,-95,l),
(165,453,l),
(490,453,l),
(490,577,l)
);
},
{
closed = 1;
nodes = (
(453,577,l),
(453,28,ls),
(453,19,o),
(449,16,o),
(444,16,cs),
(439,16,o),
(429,16,o),
(411,17,c),
(424,-13,o),
(437,-63,o),
(440,-95,c),
(482,-95,o),
(513,-92,o),
(539,-73,cs),
(565,-54,o),
(570,-23,o),
(570,26,cs),
(570,577,l)
);
},
{
closed = 1;
nodes = (
(198,534,l),
(198,-85,l),
(291,-85,l),
(291,534,l)
);
},
{
closed = 1;
nodes = (
(325,534,l),
(325,-85,l),
(418,-85,l),
(418,534,l)
);
},
{
closed = 1;
nodes = (
(225,756,l),
(221,690,o),
(209,611,o),
(194,551,c),
(326,536,l),
(348,593,o),
(372,675,o),
(388,748,c)
);
},
{
closed = 1;
nodes = (
(585,617,l),
(585,482,l),
(975,482,l),
(975,617,l)
);
},
{
closed = 1;
nodes = (
(765,848,l),
(765,62,ls),
(765,46,o),
(759,40,o),
(742,40,cs),
(725,40,o),
(674,40,o),
(626,42,c),
(646,5,o),
(669,-57,o),
(675,-96,c),
(753,-96,o),
(811,-90,o),
(852,-68,cs),
(892,-45,o),
(905,-8,o),
(905,61,cs),
(905,848,l)
);
},
{
closed = 1;
nodes = (
(579,381,l),
(611,308,o),
(638,215,o),
(642,156,c),
(770,201,l),
(764,262,o),
(733,351,o),
(698,421,c)
);
}
);
vertWidth = 1000;
width = 1000;
}
);
note = cid32296;
unicode = 32784;
}
{
glyphname = uni9175;
layers = (
{
layerId = m01;
shapes = (
{
closed = 1;
nodes = (
(645,832,l),
(645,523,l),
(674,523,l),
(674,832,l)
);
},
{
closed = 1;
nodes = (
(475,179,l),
(475,149,l),
(952,149,l),
(952,179,l)
);
},
{
closed = 1;
nodes = (
(488,708,l),
(488,678,l),
(824,678,l),
(824,708,l)
);
},
{
closed = 1;
nodes = (
(466,535,l),
(466,506,l),
(950,506,l),
(950,535,l)
);
},
{
closed = 1;
nodes = (
(524,388,l),
(524,359,l),
(881,359,l),
(881,388,l)
);
},
{
closed = 1;
nodes = (
(696,262,l),
(696,-27,ls),
(696,-38,o),
(692,-41,o),
(679,-42,cs),
(667,-43,o),
(622,-43,o),
(566,-42,c),
(571,-50,o),
(575,-61,o),
(577,-68,c),
(646,-69,o),
(683,-69,o),
(702,-63,cs),
(721,-58,o),
(725,-48,o),
(725,-26,cs),
(725,262,l)
);
},
{
closed = 1;
nodes = (
(869,388,l),
(869,381,l),
(828,332,o),
(761,282,o),
(696,250,c),
(703,245,o),
(712,238,o),
(717,231,c),
(783,263,o),
(856,319,o),
(906,376,c),
(883,390,l),
(876,388,l)
);
},
{
closed = 1;
nodes = (
(898,790,l),
(792,562,o),
(628,365,o),
(442,242,c),
(450,238,o),
(461,229,o),
(467,222,c),
(654,349,o),
(819,550,o),
(926,780,c)
);
},
{
closed = 1;
nodes = (
(73,593,l),
(73,-67,l),
(102,-67,l),
(102,564,l),
(414,564,l),
(414,-54,l),
(443,-54,l),
(443,593,l)
);
},
{
closed = 1;
nodes = (
(84,208,l),
(84,179,l),
(425,179,l),
(425,208,l)
);
},
{
closed = 1;
nodes = (
(84,39,l),
(84,10,l),
(425,10,l),
(425,39,l)
);
},
{
closed = 1;
nodes = (
(51,783,l),
(51,754,l),
(458,754,l),
(458,783,l)
);
},
{
closed = 1;
nodes = (
(186,772,l),
(186,578,l),
(216,578,l),
(216,772,l)
);
},
{
closed = 1;
nodes = (
(293,772,l),
(293,578,l),
(323,578,l),
(323,772,l)
);
},
{
closed = 1;
nodes = (
(186,579,l),
(186,487,ls),
(186,428,o),
(172,356,o),
(96,300,c),
(103,296,o),
(114,287,o),
(119,280,c),
(197,340,o),
(216,423,o),
(216,487,cs),
(216,579,l)
);
},
{
closed = 1;
nodes = (
(293,579,l),
(293,383,ls),
(293,345,o),
(304,340,o),
(340,340,cs),
(347,340,o),
(397,340,o),
(404,340,cs),
(428,340,o),
(439,348,o),
(442,361,c),
(432,364,o),
(422,366,o),
(415,372,c),
(413,370,o),
(410,370,o),
(397,370,cs),
(387,370,o),
(348,370,o),
(341,370,cs),
(325,370,o),
(323,372,o),
(323,383,cs),
(323,579,l)
);
}
);
vertWidth = 1000;
width = 1000;
},
{
layerId = "94DDBC6A-1627-4027-9125-871D02041BCD";
shapes = (
{
closed = 1;
nodes = (
(603,855,l),
(603,508,l),
(731,508,l),
(731,855,l)
);
},
{
closed = 1;
nodes = (
(504,210,l),
(504,90,l),
(970,90,l),
(970,210,l)
);
},
{
closed = 1;
nodes = (
(516,762,l),
(516,644,l),
(819,644,l),
(819,762,l)
);
},
{
closed = 1;
nodes = (
(492,581,l),
(492,459,l),
(975,459,l),
(975,581,l)
);
},
{
closed = 1;
nodes = (
(533,411,l),
(533,298,l),
(849,298,l),
(849,411,l)
);
},
{
closed = 1;
nodes = (
(669,266,l),
(669,51,ls),
(669,41,o),
(665,38,o),
(654,38,cs),
(642,38,o),
(601,38,o),
(570,39,c),
(585,2,o),
(602,-51,o),
(606,-90,c),
(667,-90,o),
(715,-89,o),
(754,-70,cs),
(795,-49,o),
(803,-14,o),
(803,47,cs),
(803,266,l)
);
},
{
closed = 1;
nodes = (
(799,411,l),
(799,387,l),
(772,341,o),
(725,290,o),
(676,254,c),
(697,233,o),
(726,199,o),
(740,178,c),
(807,215,o),
(884,282,o),
(938,353,c),
(857,417,l),
(828,411,l)
);
},
{
closed = 1;
nodes = (
(860,814,l),
(779,593,o),
(630,416,o),
(436,316,c),
(463,292,o),
(509,241,o),
(527,215,c),
(722,333,o),
(884,530,o),
(980,777,c)
);
},
{
closed = 1;
nodes = (
(52,614,l),
(52,-94,l),
(159,-94,l),
(159,495,l),
(364,495,l),
(364,-80,l),
(477,-80,l),
(477,614,l)
);
},
{
closed = 1;
nodes = (
(100,227,l),
(100,119,l),
(425,119,l),
(425,227,l)
);
},
{
closed = 1;
nodes = (
(100,80,l),
(100,-31,l),
(425,-31,l),
(425,80,l)
);
},
{
closed = 1;
nodes = (
(42,817,l),
(42,698,l),
(480,698,l),
(480,817,l)
);
},
{
closed = 1;
nodes = (
(157,780,l),
(157,523,l),
(249,523,l),
(249,780,l)
);
},
{
closed = 1;
nodes = (
(275,780,l),
(275,523,l),
(369,523,l),
(369,780,l)
);
},
{
closed = 1;
nodes = (
(184,524,l),
(184,428,ls),
(184,387,o),
(182,341,o),
(151,302,c),
(165,294,o),
(193,271,o),
(204,258,c),
(243,304,o),
(250,373,o),
(250,426,cs),
(250,524,l)
);
},
{
closed = 1;
nodes = (
(274,524,l),
(274,383,ls),
(274,317,o),
(287,300,o),
(336,300,cs),
(345,300,o),
(353,300,o),
(362,300,cs),
(396,300,o),
(416,313,o),
(425,347,c),
(404,352,o),
(377,362,o),
(365,374,c),
(363,371,o),
(361,370,o),
(351,370,cs),
(349,370,o),
(348,370,o),
(346,370,cs),
(341,370,o),
(340,371,o),
(340,385,cs),
(340,524,l)
);
}
);
vertWidth = 1000;
width = 1000;
}
);
note = cid41017;
unicode = 37237;
}
{
glyphname = uni9633;
layers = (
{
layerId = m01;
shapes = (
{
closed = 1;
nodes = (
(462,781,l),
(462,-70,l),
(491,-70,l),
(491,752,l),
(871,752,l),
(871,-62,l),
(900,-62,l),
(900,781,l)
);
},
{
closed = 1;
nodes = (
(476,17,l),
(476,-12,l),
(881,-12,l),
(881,17,l)
);
},
{
closed = 1;
nodes = (
(476,404,l),
(476,374,l),
(881,374,l),
(881,404,l)
);
},
{
closed = 1;
nodes = (
(92,787,l),
(92,-70,l),
(122,-70,l),
(122,758,l),
(354,758,l),
(354,787,l)
);
},
{
closed = 1;
nodes = (
(343,787,l),
(343,781,l),
(312,707,o),
(264,607,o),
(213,515,c),
(311,426,o),
(338,356,o),
(338,293,cs),
(339,260,o),
(332,228,o),
(312,215,cs),
(300,208,o),
(286,205,o),
(271,203,cs),
(248,202,o),
(218,202,o),
(185,206,c),
(192,196,o),
(196,183,o),
(197,176,c),
(223,174,o),
(253,173,o),
(279,176,cs),
(298,178,o),
(317,182,o),
(331,191,cs),
(357,209,o),
(369,249,o),
(368,293,cs),
(368,359,o),
(343,432,o),
(247,520,c),
(291,600,o),
(338,695,o),
(375,774,c),
(355,789,l),
(349,787,l)
);
}
);
vertWidth = 1000;
width = 1000;
},
{
layerId = "94DDBC6A-1627-4027-9125-871D02041BCD";
shapes = (
{
closed = 1;
nodes = (
(442,807,l),
(442,-95,l),
(582,-95,l),
(582,670,l),
(792,670,l),
(792,-86,l),
(939,-86,l),
(939,807,l)
);
},
{
closed = 1;
nodes = (
(534,109,l),
(534,-28,l),
(877,-28,l),
(877,109,l)
);
},
{
closed = 1;
nodes = (
(528,460,l),
(528,327,l),
(871,327,l),
(871,460,l)
);
},
{
closed = 1;
nodes = (
(68,812,l),
(68,-96,l),
(207,-96,l),
(207,683,l),
(318,683,l),
(318,812,l)
);
},
{
closed = 1;
nodes = (
(277,812,l),
(277,765,l),
(270,707,o),
(243,574,o),
(214,461,c),
(261,399,o),
(271,338,o),
(271,296,cs),
(271,268,o),
(266,252,o),
(256,244,cs),
(249,238,o),
(239,236,o),
(229,236,cs),
(219,236,o),
(210,236,o),
(195,238,c),
(216,200,o),
(226,142,o),
(227,104,c),
(252,103,o),
(275,104,o),
(293,107,cs),
(317,111,o),
(338,119,o),
(355,131,cs),
(391,157,o),
(406,200,o),
(406,274,cs),
(406,331,o),
(397,401,o),
(342,476,c),
(370,558,o),
(402,667,o),
(425,759,c),
(323,817,l),
(302,812,l)
);
}
);
vertWidth = 1000;
width = 1000;
}
);
note = cid43094;
unicode = 38451;
}
{
glyphname = uni9634;
layers = (
{
layerId = m01;
shapes = (
{
closed = 1;
nodes = (
(92,787,l),
(92,-70,l),
(122,-70,l),
(122,758,l),
(354,758,l),
(354,787,l)
);
},
{
closed = 1;
nodes = (
(343,787,l),
(343,781,l),
(312,707,o),
(263,606,o),
(212,514,c),
(311,425,o),
(338,354,o),
(338,291,cs),
(339,258,o),
(332,225,o),
(311,212,cs),
(300,205,o),
(286,202,o),
(271,201,cs),
(248,199,o),
(218,199,o),
(185,203,c),
(191,193,o),
(196,181,o),
(197,173,c),
(222,171,o),
(253,171,o),
(279,173,cs),
(298,175,o),
(317,180,o),
(331,188,cs),
(357,206,o),
(369,247,o),
(368,290,cs),
(368,357,o),
(343,430,o),
(247,518,c),
(290,599,o),
(338,695,o),
(375,774,c),
(355,789,l),
(349,787,l)
);
},
{
closed = 1;
nodes = (
(515,781,l),
(515,752,l),
(892,752,l),
(892,781,l)
);
},
{
closed = 1;
nodes = (
(515,534,l),
(515,505,l),
(892,505,l),
(892,534,l)
);
},
{
closed = 1;
nodes = (
(504,280,l),
(504,251,l),
(889,251,l),
(889,280,l)
);
},
{
closed = 1;
nodes = (
(875,781,l),
(875,-16,ls),
(875,-34,o),
(869,-39,o),
(852,-40,cs),
(835,-41,o),
(777,-42,o),
(708,-40,c),
(714,-49,o),
(718,-63,o),
(721,-71,c),
(802,-71,o),
(849,-71,o),
(872,-65,cs),
(895,-60,o),
(905,-47,o),
(905,-16,cs),
(905,781,l)
);
},
{
closed = 1;
nodes = (
(499,781,l),
(499,434,ls),
(499,276,o),
(480,85,o),
(310,-50,c),
(317,-54,o),
(326,-65,o),
(330,-71,c),
(506,68,o),
(528,272,o),
(528,434,cs),
(528,781,l)
);
}
);
vertWidth = 1000;
width = 1000;
},
{
layerId = "94DDBC6A-1627-4027-9125-871D02041BCD";
shapes = (
{
closed = 1;
nodes = (
(68,812,l),
(68,-96,l),
(207,-96,l),
(207,683,l),
(318,683,l),
(318,812,l)
);
},
{
closed = 1;
nodes = (
(277,812,l),
(277,765,l),
(270,707,o),
(243,574,o),
(214,461,c),
(261,399,o),
(271,338,o),
(271,296,cs),
(271,268,o),
(266,252,o),
(256,244,cs),
(249,238,o),
(239,236,o),
(229,236,cs),
(219,236,o),
(210,236,o),
(195,238,c),
(216,200,o),
(226,142,o),
(227,104,c),
(252,103,o),
(275,104,o),
(293,107,cs),
(317,111,o),
(338,119,o),
(355,131,cs),
(391,157,o),
(406,200,o),
(406,274,cs),
(406,331,o),
(397,401,o),
(342,476,c),
(370,558,o),
(402,667,o),
(425,759,c),
(323,817,l),
(302,812,l)
);
},
{
closed = 1;
nodes = (
(548,814,l),
(548,680,l),
(855,680,l),
(855,814,l)
);
},
{
closed = 1;
nodes = (
(548,578,l),
(548,448,l),
(855,448,l),
(855,578,l)
);
},
{
closed = 1;
nodes = (
(548,346,l),
(548,216,l),
(855,216,l),
(855,346,l)
);
},
{
closed = 1;
nodes = (
(800,814,l),
(800,62,ls),
(800,47,o),
(788,41,o),
(764,41,cs),
(740,41,o),
(695,41,o),
(653,44,c),
(674,4,o),
(695,-57,o),
(701,-95,c),
(782,-95,o),
(842,-92,o),
(886,-69,cs),
(930,-46,o),
(942,-7,o),
(942,60,cs),
(942,814,l)
);
},
{
closed = 1;
nodes = (
(465,814,l),
(465,447,ls),
(465,300,o),
(460,125,o),
(298,0,c),
(329,-20,o),
(383,-69,o),
(403,-96,c),
(585,47,o),
(604,278,o),
(604,447,cs),
(604,814,l)
);
}
);
vertWidth = 1000;
width = 1000;
}
);
note = cid43095;
unicode = 38452;
}
{
glyphname = uni9ED1;
layers = (
{
layerId = m01;
shapes = (
{
closed = 1;
nodes = (
(201,759,l),
(796,759,l),
(796,484,l),
(201,484,l)
);
},
{
closed = 1;
nodes = (
(172,788,l),
(172,454,l),
(825,454,l),
(825,788,l)
);
},
{
closed = 1;
nodes = (
(280,686,l),
(314,636,o),
(346,568,o),
(357,525,c),
(383,537,l),
(373,580,o),
(340,645,o),
(306,695,c)
);
},
{
closed = 1;
nodes = (
(145,348,l),
(145,318,l),
(852,318,l),
(852,348,l)
);
},
{
closed = 1;
nodes = (
(59,208,l),
(59,179,l),
(942,179,l),
(942,208,l)
);
},
{
closed = 1;
nodes = (
(483,777,l),
(483,195,l),
(513,195,l),
(513,777,l)
);
},
{
closed = 1;
nodes = (
(681,702,l),
(659,651,o),
(616,575,o),
(583,530,c),
(606,517,l),
(638,561,o),
(679,632,o),
(710,689,c)
);
},
{
closed = 1;
nodes = (
(355,95,l),
(368,43,o),
(377,-24,o),
(378,-65,c),
(406,-60,l),
(406,-21,o),
(396,45,o),
(382,96,c)
);
},
{
closed = 1;
nodes = (
(565,95,l),
(589,44,o),
(616,-22,o),
(626,-64,c),
(654,-56,l),
(643,-16,o),
(617,51,o),
(592,100,c)
);
},
{
closed = 1;
nodes = (
(774,97,l),
(827,46,o),
(887,-24,o),
(915,-69,c),
(940,-55,l),
(912,-10,o),
(852,60,o),
(799,109,c)
);
},
{
closed = 1;
nodes = (
(188,112,l),
(163,44,o),
(117,-21,o),
(61,-58,c),
(83,-74,l),
(142,-34,o),
(187,37,o),
(214,105,c)
);
}
);
vertWidth = 1000;
width = 1000;
},
{
layerId = "94DDBC6A-1627-4027-9125-871D02041BCD";
shapes = (
{
closed = 1;
nodes = (
(284,708,l),
(710,708,l),
(710,533,l),
(284,533,l)
);
},
{
closed = 1;
nodes = (
(146,824,l),
(146,417,l),
(857,417,l),
(857,824,l)
);
},
{
closed = 1;
nodes = (
(286,669,l),
(307,627,o),
(325,571,o),
(329,536,c),
(423,571,l),
(417,607,o),
(397,660,o),
(374,700,c)
);
},
{
closed = 1;
nodes = (
(129,390,l),
(129,275,l),
(874,275,l),
(874,390,l)
);
},
{
closed = 1;
nodes = (
(50,248,l),
(50,126,l),
(951,126,l),
(951,248,l)
);
},
{
closed = 1;
nodes = (
(424,776,l),
(424,182,l),
(570,182,l),
(570,776,l)
);
},
{
closed = 1;
nodes = (
(619,707,l),
(605,659,o),
(583,606,o),
(562,570,c),
(642,531,l),
(666,566,o),
(696,617,o),
(720,665,c)
);
},
{
closed = 1;
nodes = (
(320,83,l),
(328,27,o),
(331,-45,o),
(330,-89,c),
(474,-72,l),
(474,-29,o),
(466,42,o),
(456,96,c)
);
},
{
closed = 1;
nodes = (
(516,78,l),
(534,24,o),
(552,-47,o),
(557,-90,c),
(704,-57,l),
(697,-13,o),
(675,54,o),
(654,106,c)
);
},
{
closed = 1;
nodes = (
(710,85,l),
(751,28,o),
(801,-51,o),
(820,-100,c),
(967,-50,l),
(943,1,o),
(889,75,o),
(847,129,c)
);
},
{
closed = 1;
nodes = (
(139,127,l),
(117,64,o),
(77,-3,o),
(36,-39,c),
(177,-99,l),
(222,-51,o),
(262,23,o),
(283,92,c)
);
}
);
vertWidth = 1000;
width = 1000;
}
);
note = cid47019;
unicode = 40657;
}
